<svg version="1" xmlns="http://www.w3.org/2000/svg" width="1600" height="1600" viewBox="0 0 1200 1200"><path d="M567.5 27c-65.5 4.4-118.1 15.5-173 36.2C254.8 116 138.8 224.9 77.2 361c-31.7 70.1-47.9 141-50.8 223-1 27.3 1.7 67.1 6.7 99.8 21.1 138.4 92.3 263.1 201.9 353.8 39.5 32.7 90 63.4 137.8 83.8 126.6 54 271.2 60.1 402.7 16.9 36.1-11.8 83.4-33.1 108.7-49l3.7-2.3 4.2 7.3c15.4 26.7 27.4 41.4 43.2 53.1 12.3 9.1 31.8 16.9 48.9 19.6 10.7 1.7 30.1.8 40.5-1.9 45.9-11.9 87.7-47.8 110.5-94.7 6.9-14 7.8-20.2 8.5-53.4.7-37.4.2-40.1-14.5-75.5-6.1-14.7-9.7-20.9-17.8-31.1-7.3-9.2-13.9-15.7-20.5-20.1l-3.6-2.4 6.4-11.2c33-57.7 57.6-129.8 67.2-197.2 4.4-30.7 5.5-47.6 5.5-83.5-.1-35.8-1.1-51.4-5.5-82-12.7-88.8-47.3-174.9-100.2-249-30.6-42.9-71.8-85.6-114.7-119C858.8 78.1 756.8 38.4 645 28.5c-21.8-1.9-60.3-2.6-77.5-1.5zM651 53.5C754.4 64.9 844.3 100.2 924.9 161c22.3 16.8 36.9 29.6 58.6 51.4 92.7 93 146.9 211.6 157.5 344.1 1.4 17.2 1.4 62.3 0 80.5-6.1 81.4-31 162.4-71.1 231.5l-6.4 11-11 .7c-12.2.7-36.1 6.3-50.1 11.7-12.5 4.8-23.8 12.3-33.4 22.1-13.5 13.7-20.7 27.8-23.7 46.1-2 12.2-1 24.9 3 36.9 4.6 14 4.8 12.7-4 20.1-10.7 8.9-23.2 18.5-33 25.3l-8.3 5.8-4.4-9.6c-2.4-5.2-4.7-10.5-5.1-11.8-.4-1.3-2.4-6.4-4.5-11.3-2.1-5-5.7-15-7.9-22.3-2.3-7.3-6.7-18.3-9.8-24.4l-5.6-11.2 3.8-3.1c42.2-33.2 76.6-70.2 103-110.7 5.2-7.9 7.6-10.7 9.1-10.7 3.4-.1 8.8-4.3 10.9-8.6 1.3-2.7 2-6.3 2.1-11 .1-6.4.6-8 6.2-19.1 19.7-39.3 34-85.3 40.7-131.4 3.6-24.4 4.6-39.7 4.6-67 0-28-1.8-50-6.2-75.8-3.4-20.1-3.2-18.4-1.6-20.5 1-1.5 1.7-1.6 4.4-.6 4.9 1.7 9.4-.3 15.2-6.7 5.3-5.8 9.1-14.1 9.1-19.9 0-1.8.7-6.2 1.6-9.7 2.2-8.6 1.3-16.5-3.4-30.2-2.2-6.1-4.2-11.8-4.5-12.6-.5-1.1.5-2.1 3.5-3.5 5.7-2.7 8-6.7 7.4-12.5-.4-3.1-.1-5.1.9-6.4.8-1.1 1.5-4 1.5-6.4 0-6-12-30.2-16.8-34-4.6-3.5-10.2-3.5-17.1.1-2.9 1.6-5.4 2.7-5.5 2.5-.2-.2-1.6-2.7-3.1-5.6-3.6-6.6-11-13.6-17.9-16.8l-5.3-2.4-.6-8.1c-.4-6.7-1.2-9.5-4.5-16.2-4.7-9.8-11.5-19.1-17.7-24.2l-4.6-3.7 3.1-3.4c3.4-3.9 4.5-7.2 3.7-11.3-.4-1.8.1-4.2 1.3-6.7 2.5-4.8 2.5-6.8-.1-11.8-2.1-4.1-28-29.1-32.8-31.5-2.3-1.3-9.1-1.1-12.3.3-1.5.7-1.5.4-.6-2.8 2.2-7 .3-10-15.8-25.2-15.5-14.8-19.1-17.4-23.9-17.4-1.7 0-4.5.8-6.2 1.7-1.8 1-11.6 10.8-21.8 21.8-26.2 28.1-26.3 28.1-27.6 26.8-.8-.8.2-2.2 3.8-5.4 2.6-2.4 7-6.5 9.6-9 4.6-4.6 4.8-4.9 4.6-10.1-.1-3.3.5-6.4 1.5-8.3 1.9-3.7 2-7.5.2-11.8-1.8-4.4-3.3-5.4-17.9-13.1-11.2-5.9-13.4-6.7-17-6.4-2.3.3-4.9.8-5.9 1.2-1.2.6-1.8.1-2.3-2.4-1.2-5.3-5.2-8.6-19.1-15.9-11.5-6.1-14.2-7.1-18.5-7.1-4.1 0-5.7-.6-8.7-3-8-6.3-26.6-13-36.4-13-3.3 0-5-.6-6.4-2.1-1-1.1-2.7-2.5-3.7-3.1-2.1-1.1-31.7-6.8-35.4-6.8-2.5 0-2.5-.1-1.7-5.8 1.1-7.9 1-11.2-.7-14.6-2.5-5.1-5.6-6.5-21.8-9.6-12.5-2.4-16.1-2.8-19.2-2-6.5 1.8-9.7 7.2-11.4 19.2-.4 2.7-.9 4.8-1.2 4.8-.3 0-3-.7-6-1.6-4.3-1.3-7.8-1.5-15.2-1-5.3.4-10.7.7-12.1.6-1.4 0-9.4-.3-17.9-.6-16.4-.6-19.2-.1-23.1 4.1l-2.1 2.3-6.2-2c-13.2-4.1-35.3-1.6-46.3 5.4-2.6 1.6-5 2.6-5.4 2.1-.4-.4-2.2-5.2-3.9-10.5-2.6-7.7-4-10.3-6.7-12.8-5.2-4.6-9.5-4.1-31.4 3.1-20.4 6.8-23.4 8.6-25.3 15.7-.9 3.3-1.4 4-2.2 3-2.2-3-6.1-4.8-10.3-4.8-6.1 0-40.3 11.3-44.2 14.6-4.3 3.7-5.5 9.1-3.6 15.9.9 2.9 1.6 6.8 1.6 8.7 0 1.8 3.6 14.1 8 27.3 4.4 13.2 7.9 24.4 7.7 24.9-.2.6-1.7-1-3.4-3.5-4.7-6.8-14.7-15.7-20.6-18.4-14.6-6.7-29.4-5.3-45.7 4.4-12.8 7.7-21.9 17.8-25.5 28.4l-1.9 5.7h-4.3c-19.6 0-48 25.6-50.8 45.8l-.7 4.9-4.4.7c-9.4 1.3-18.3 7.6-28.9 20.9-10.8 13.4-16.5 25.6-16.5 35.3 0 2.8-.5 3.3-4.9 5.2-9.3 3.8-18.4 14.4-21.5 24.9-.8 2.9-2.6 6.8-3.9 8.5-1.3 1.8-4.6 7.2-7.1 12.1-4.9 9-4.9 9-12.9 10.1-6.5.8-14.5 5.2-20.1 10.9-12.1 12.4-21 38.5-18.6 54.5 3.5 23.4 5.4 28.8 13.2 36.6 7.4 7.4 14.4 9.9 25.3 9.3 4.4-.2 8.9-.8 10.1-1.1 1.8-.7 2-.4 1.6 2.7-.2 1.9.3 4.8 1.2 6.5 1.4 2.8 1.4 3.8.1 10-7 33.5-10.2 83.8-7.6 119.7 4.5 60.9 18.8 114.2 45.1 168 21.2 43.3 49.9 83.3 85 118.5 85.3 85.4 196.5 131.9 316.2 132.1 20.8.1 22.8.2 22.4 1.7-1.9 6-4.6 27-4.6 35.7 0 12.8 2.8 27.6 6.7 34.7 3.7 6.8 11.1 14.8 17.5 19l5.3 3.3-7 .7c-11.6 1.2-63 1.1-78.5-.1-186.4-15-348.9-120.2-438.9-284.1-34.5-62.9-55.7-131.6-63.8-207-2.5-23.5-2.5-83.6.1-107C61 473.7 78.6 412.7 108 354c29.7-59.4 70.9-114.4 117.7-157.2 19-17.4 24.5-22 42.8-35.8C352.7 97.3 451.8 60.1 559 52c17.7-1.3 75-.4 92 1.5zm24.6 38.1c2.3.4 4.6.9 5.2 1.3.6.4-.5 8-2.9 20.6-2.1 11-3.8 20.8-3.6 21.7.1 1.4 2.5-.1 10.2-6.2 5.5-4.4 10.9-8 12-8 2.3 0 27.6 4.7 28.1 5.3.2.2-5.3 4.1-12.2 8.7-6.9 4.6-12.8 8.8-13.1 9.3-.3.5 1.2 5.7 3.3 11.5l3.8 10.7.8-4.3c2.1-12.4 11.6-24.3 21.9-27.7 7.9-2.6 19.3-1.7 29.2 2.5 16.4 6.8 23.2 15.7 23.2 30.5 0 5.1-.7 9.9-1.8 13.2-1 2.9-2 5.3-2.2 5.3-.2 0-10.6-3.6-23.1-8-23.4-8.2-24.3-8.4-24.4-3.7 0 4.6 2.9 8.8 7.7 10.9 4.5 2 5 2 9.1.5l4.4-1.5 10.4 4.8c5.8 2.6 10.7 5 11 5.3 1.1 1-8.6 6.7-13.8 8.1-10 2.6-29.4-2-39.6-9.3-3.2-2.4-6.6-3.4-17.8-5.5-7.6-1.4-14.1-3.1-14.5-3.7-.3-.6-2.1-6.5-3.9-13-1.9-6.6-3.7-12.2-4.2-12.5-.4-.3-3 .9-5.7 2.7-4.8 3.2-4.9 3.3-6.1 10.8-.7 4.2-1.6 7.9-1.9 8.2-.3.3-6-.4-12.6-1.7-8-1.5-15.8-2.3-23.3-2.4h-11.3l.7-20.9.7-20.9-2.6-2.6c-2.8-2.8-7.3-3.4-10.8-1.6-4.3 2.3-5.2 6.4-5.7 26.2l-.5 18.8h-10.1c-15.1 0-14.6.3-14.6-9.4-.1-7.8-.1-8-1.5-4.9-4.1 9.6-16 17.3-29.3 19.1-11.4 1.6-21.3-.3-28-5.5-3.9-2.9-4.7-2.6-3.2 1.1.5 1.5 1 3.3 1 4 0 1.5-20 8-21 6.9-.5-.4-5.2-14.2-10.6-30.5-5.4-16.4-9.9-29.7-10-29.5-.2.1.6 12.9 1.6 28.2 1.1 15.4 2.1 30.2 2.2 33l.3 5-9.4 3.2c-5.1 1.8-9.7 3.1-10.1 2.8-.4-.2-8.5-12.6-18-27.5s-17.4-26.9-17.6-26.7c-.2.2 4.1 13.7 9.6 30.1l9.9 29.7-3.2 1.4c-7.9 3.2-17.8 5.8-18.6 4.9-.7-.7-27-80-27.5-82.8-.1-1.1 32.1-11.9 33.7-11.3.7.3 7.8 10.5 15.6 22.7 7.9 12.1 14.4 22 14.6 21.8.1-.2-.6-12.4-1.6-27.2-1.1-14.8-1.8-27-1.7-27 .2-.1 7.9-2.6 17.1-5.6 12-3.9 17-5.1 17.5-4.3.4.6 3.9 10.9 7.7 22.7C501 139.5 503 144 503 139c0-2.5 3.3-9.2 6.7-13.7 5.9-7.7 18.4-12.6 32.3-12.6 15.1 0 25.3 6 31.3 18.4l2.6 5.4.1-13.3V110h24v9.2l3.9-3.1c5.8-4.7 10.8-6.4 18.1-6.3 7.5 0 11.4 1.2 15.3 5 5.5 5.2 6.2 7.5 6.7 23.7l.5 14.9 5.9-31.9c3.2-17.6 6-32.3 6.2-32.6.2-.4 3.6 0 7.6.7 4 .8 9.2 1.7 11.4 2zm124.1 63.1c5.9 3.1 10.9 5.7 11 5.8.2.1-1.5 9.6-3.7 21.1-2.2 11.5-4 21.3-4 21.8 0 .4 6.9-6.2 15.3-14.9l15.2-15.7 10.8 5.7c5.9 3.1 10.7 5.8 10.7 5.9 0 .4-57.1 51-60.4 53.5-4.7 3.6-10.7 6.1-14.6 6-6.4 0-18-5.1-26.9-11.8-2.2-1.7-2.3-2-1.1-5.7.7-2.1 2.1-5.9 3.2-8.3l1.9-4.4 2.2 2c4 3.6 9.4 6.3 12.6 6.3 4.7 0 8.8-2.5 9.5-5.7.3-1.6 1.7-17.3 3.3-35.1 1.5-17.7 3.1-32.2 3.5-32.2.4 0 5.6 2.5 11.5 5.7zm-438 27.8c6.4 1.9 12.8 6.8 18.1 13.9l4.2 5.6-20.5 13.6c-11.3 7.6-20.5 14.1-20.5 14.6 0 1.8 6.7 4.8 10.9 4.8 3.6 0 4.9-.6 7.7-3.4 1.9-1.9 3.7-4.8 4-6.5.6-2.7 1.9-3.8 10.9-8.6 5.6-3 10.6-5.5 11-5.5 1.4 0-.3 11.7-2.4 16.6-3.8 8.6-16.1 19.1-28.1 24.1-6.5 2.7-16.3 3-21.7.8-1.9-.8-3.7-1.5-3.9-1.5-.2 0 0 2.2.3 4.8 1.2 10.5-5.6 23.1-17.6 32.5-9.6 7.6-15.6 9.9-24.7 9.5l-7.5-.3 2.7 2.1c1.5 1.2 4 2.6 5.6 3 1.6.5 3 1.3 3 1.8.1.4-2.8 4.6-6.3 9.2-6.7 8.7-7.7 9.3-13.1 6.9-1.6-.6-1.8-.1-1.8 4.6-.1 13.4-12.9 28.9-25.1 30.5-4.1.5-4.7.9-4 2.3 5.1 9.6-.9 25.6-11.8 31.9l-4.9 2.8 12.9 7.2 12.9 7.3-1.6 3.2c-2.6 5-10.5 18.7-10.9 18.7-.2 0-7.4-4-16.1-8.9-8.8-4.9-16-8.8-16.1-8.7-.1.1.8 2.2 2 4.7 2.6 5.3 3.5 17.6 1.7 24.6-2.2 9.1-7.2 20.3-11.5 26.2-6.2 8.5-12.9 11.6-24.7 11.6-4.7 0-8.9-.2-9.2-.5-.3-.3 1.2-6.2 3.2-13.1l3.6-12.6 4.6.4c6 .6 10.7-2.1 13.8-7.8 6-11.2-2.6-22-11.6-14.4-1.6 1.3-5.5 6.2-8.6 10.8-10.3 15.5-18.1 21.6-28.2 22.5-14.8 1.2-27-13.2-24.9-29.7 1.5-12.2 7.7-27 14.2-34.2 5.5-6.1 10.5-8.3 19-8.3 4 0 7.5.3 7.8.6.4.4.2 2.2-.3 4-.6 1.8-2.2 7.2-3.7 11.9l-2.5 8.6-4.6.6c-2.4.2-5.4 1.3-6.5 2.3-5.3 4.8-6.8 13.4-3 16.6 4.4 3.5 6.1 2.1 15.6-12.2 10.7-16.2 18.4-22.7 28.5-24l4.5-.5-12.3-6.9c-6.8-3.7-12.2-7.1-12-7.5.2-.3 2.7-5 5.6-10.4l5.4-9.8 3.3 2.1c4.3 2.6 4.5 2.6 3.4-1.2-3.4-11.9 3-25.8 13.9-30.4 5.5-2.3 15.6-2.1 23.5.5 3.7 1.3 6.9 2.7 7.2 3.2 1.5 2.3 3.3.6 3.7-3.6.3-2.7 3.3-10.2 7.1-18.3 8.4-17.3 8.8-18.8 5.3-20.2-3.6-1.3-6.7.3-9.9 5.3-2.9 4.4-3.4 7.6-1.6 10.9 1 1.8.2 3-7.2 10.4-4.6 4.6-8.7 8.4-9 8.4-1.5 0-5.9-10.6-5.9-14.2 0-8.2 6.3-19.5 17.7-31.8 11.8-12.8 19.9-14.7 31.8-7.4 3 1.8 5.5 3.2 5.5 3.1 0-.1-1.1-2.4-2.5-5.1-2-4-2.5-6.4-2.5-12.6 0-10.6 3.4-17.2 13.6-27 9.8-9.3 17.4-13 26.4-13 6 0 15 2.7 15 4.5 0 .3-3.1 4.3-6.9 8.9l-6.9 8.3-5.4-.5c-5.1-.4-5.7-.2-9 3-6.3 5.9-6.3 12.5.2 20.7 4.4 5.6 11 8.8 15.6 7.7 7.3-1.9 11-7.6 10.1-15.4l-.5-4.7 7.3-5.4 7.4-5.4-3.2-3.7c-6.1-6.7-8.2-12.4-8.2-22.5 0-7.5.4-9.8 2.4-13.7 4.1-8.1 13.7-16.5 23.9-21 9-4 15-4.6 22.9-2.3zm559.6 21.1l8.8 8.1-13 23.8c-7.2 13.1-13 24-12.8 24.1.1.2 10.4-6.2 22.7-14.1 12.4-8 22.9-14.4 23.3-14.2.4.1 6.6 5.6 13.7 12.2l12.8 11.9-10.1 10.9c-5.6 6-13.1 14.1-16.6 17.9l-6.5 7 3.5-.8c6.4-1.7 16.2-.9 21.5 1.6 7 3.4 16.2 13.1 20.9 22 3.8 7.1 4 7.9 4 16.5 0 7.4-.4 9.7-2.3 13.2-1.2 2.3-2.2 4.4-2.2 4.5 0 .2 3 .1 6.6 0 11.7-.6 20.1 4.6 25.2 15.6 2 4.4 2.3 6.5 2 11.7l-.4 6.4 13.4-6.8 13.3-6.8 4.2 8.1c5.5 10.7 6.8 13.7 6.3 14.5-.2.3-14.2 7.6-31 16.1-16.8 8.5-30.6 16-30.6 16.7 0 .6 1.8 5 4 9.8l4 8.7-2.6 3.1c-2.2 2.6-2.5 3.8-2.1 7.5.7 6.2 3.5 9.7 7.8 9.7h3.4l-.1-7c-.1-3.9-.4-12-.8-18-.8-10.5-.7-11.2 1.6-15.5 4.3-8 15.6-11.8 23.4-7.7 11.5 6 22.2 32.7 18.4 46.2-1.2 4.1-8.2 13.7-9.2 12.5-1.1-1.3-8.8-20-8.8-21.3 0-.8.7-2.1 1.6-2.8 1.2-1 1.5-2.5 1.1-5.6-.6-5.7-3.1-9.3-6.2-9.3-4 0-4.5 3.1-2.4 15.5 1 6.1 1.9 12.8 1.9 15.1 0 18.2-18.8 26.8-32.7 15-9.9-8.6-18.7-35.7-15-46.4 1.4-4 1.4-4.3-.1-3.7-1 .4-2.3.8-3.1.9-1.3.1-11.1-16.7-11.1-19.1 0-.7 1.7-2.1 3.7-3.2l3.8-1.9-4-1.1c-6.7-1.8-11-5.5-14.4-12.2-4-8.1-4.2-15.3-.6-22.5 1.4-2.7 2.5-5 2.5-5.2 0-.1-1.5-.2-3.4-.2-1.8 0-5.8-.8-8.7-1.7-7.9-2.5-19.1-13.9-24.8-25.4-4-7.9-4.2-8.8-3.9-15.6l.3-7.2-2.7 2.5c-1.4 1.5-3.1 2.5-3.6 2.3-.5-.2-4.4-3.6-8.5-7.5l-7.5-7.2 16.6-17.8c9.2-9.9 19-20.4 21.9-23.4 2.8-3 5-5.6 4.9-5.8-.2-.1-12.6 7.6-27.7 17.3-15 9.6-27.8 17.5-28.4 17.5-.6 0-4.1-3.1-7.9-6.9l-6.9-6.9 13.3-24.4c7.3-13.3 14.7-26.8 16.3-29.8 3.7-6.7 5.1-8.1-21.7 20.7-10.9 11.7-20.2 21.3-20.7 21.3s-4.4-3.3-8.6-7.4l-7.7-7.3 3.9-4.5c2.2-2.4 15.9-17.1 30.4-32.6l26.4-28.2 4.6 4.2c2.5 2.3 8.6 7.9 13.4 12.4zm-292.1-1.3c7.9.4 18.8 1.6 24.3 2.7 13.3 2.7 14.8 2.6 18.9-1.1l3.5-3 .6 2.4c1.4 5.3 4.6 6.9 19.8 9.8 11.5 2.2 15.4 3.4 19.5 6 2.8 1.7 8.7 4.4 12.9 5.9 7.8 2.7 7.8 2.8 8.4 6.8.3 2.2 1.1 4.7 1.8 5.6.9 1 1.1 2.9.8 5.2-1.1 6.4 1.2 9.7 11.2 16.3 12.8 8.4 18.6 10.5 29.1 10.6 7.7 0 9-.3 14.5-3.3 3.3-1.7 12.9-9.3 21.2-16.8 13.5-11.9 15.5-13.4 17.3-12.4 2.6 1.4 2.5 2.2-.7 6-3.1 3.8-4.3 11.4-2.2 15.1.7 1.3 1.3 5.1 1.4 8.3v5.9l10.9 10.3c7.9 7.5 11.9 10.5 14.2 11 2.6.5 3.5 1.3 4.4 4 1.6 4.7 19.2 21.2 23.6 22 2.5.4 3.3 1.2 3.7 3.3.5 2.3 11.2 13.9 19.4 20.8 1.2 1 3.3 4.6 4.6 8.1 6.1 15.5 18.9 30.4 31.4 36.7.1 0 .9 4.1 1.7 9 1.8 11.1 4.3 17.2 9.6 22.8 2.2 2.4 4 5.2 4 6.1 0 .9 3.1 7.7 6.9 15 4.7 9.2 7.1 15.1 7.6 18.7.4 3 1.8 9.2 3.2 13.8 6.8 23.8 20 37.1 36.7 37.1h5.3l1.6 8.7c13.5 74.9 6.6 154.9-19.4 225-5.3 14.2-17.3 42.1-18.8 43.6-.5.5-2.6-.2-4.7-1.6-2.2-1.3-7.7-4.3-12.4-6.8-10.6-5.4-17.8-12.6-22.5-22.3-12.3-25.8-1.6-53.5 22.9-59.1 12-2.8 18.7-7.3 23.6-15.9 2.4-4 3-6.3 3-11 0-5.2-.3-6.1-3.3-9.1-4-4-9.2-5.1-17.2-3.6-8.3 1.5-15.8 6.3-25.8 16.2-8.1 8.1-18.3 14.9-22.3 14.9-2.1 0-2.4-3-2.2-21.6.4-22.8-.8-27.7-9-36.5-3-3.3-6-5.9-6.7-5.9-2.4 0-11-8.7-14.5-14.6-1.9-3.3-5.5-8.8-8.1-12.3l-4.8-6.4 4.2-2.1c5.1-2.5 8.1-8 8.2-14.6 0-3.2 1-6.1 3.4-10.3 2.9-5.1 3.2-6.3 2.7-11-.3-2.9-.7-8.4-.9-12.2-.3-7-1.7-11.3-4.4-12.9-1.2-.7-1-1.3 1-3.5 6.1-6.5 8.3-14.6 9.3-35.1 1-20.3-1.7-33.2-7.8-37.4-2.1-1.5-2.1-1.7-.6-5 7.9-16.5 2.6-43.8-10.8-55.6-4-3.5-10.5-7-13.1-7-2.7-.1-5.4-1.9-13.3-9-26-23.4-49.5-34.6-79.3-37.9-29.2-3.3-68.1 7.6-94.2 26.5-10.9 7.8-27.2 23.1-35.5 33.3-12 14.6-22.3 37.3-25.5 55.9-1.8 10-1.9 34.4-.3 45.2.6 4.1 1.1 16 1.2 26.5.1 14.8.5 20.4 1.9 25.5 2.7 10 12.1 28.2 17.3 33.5 4.8 5 13.2 9.5 17.8 9.5 5 0 10.7 4.6 14.4 11.7.9 1.6.9 2.9.1 4.9-1.4 3.9-.2 9.5 3.2 14.7 3.6 5.5 9.7 8.2 16.8 7.5l4.7-.5-6.1 4.2c-8.2 5.6-9.6 6-14.2 3.7-2.1-1.1-7.8-3-12.8-4.2-5.4-1.4-12-3.9-16.5-6.4-4.1-2.3-8.8-4.8-10.5-5.5-6.3-2.8-26.2-9.2-33.1-10.6-4-.8-9.4-2.6-12.2-4-2.7-1.4-5.4-2.5-6-2.5-.5 0-1.5-1.3-2.1-2.9-.7-1.5-4.1-5.9-7.7-9.6-3.5-3.7-6.4-7.1-6.4-7.6s-4.1-5.3-9.1-10.7c-11.2-11.9-16.2-19.2-20.5-29.5-3.9-9.3-4.5-10.2-10.4-13.9-10.7-6.8-19.1-18.4-21.5-29.8-1.2-5.6-7.2-20.5-9.9-24.7-1.4-2.1-5.1-6.8-8.3-10.5-3.2-3.6-10.2-11.8-15.6-18.1-9.9-11.7-13.3-14.1-16.4-11.5-2.8 2.3-3.2 5.6-2.3 16.9.8 10.2 1.3 11.9 5.2 19.8 2.3 4.7 6.4 10.9 9 13.8 2.6 2.9 4.8 5.8 4.8 6.3 0 .6.9 1.9 2.1 3.1 1.6 1.6 2.2 3.8 2.6 9.7l.6 7.7-2.4-1.8c-3.9-2.8-13.2-7.4-24.7-12.4-9.4-4-11.8-4.6-19.7-5.1-17.2-.9-30.2 2-49.7 11.1-7.4 3.5-10.1 5.3-11.2 7.6-2.2 4.1-2 5.5 1 9.1 3.5 4.1 11.4 8 16.1 8 2.1 0 8.3-1.4 13.8-3.1 17.9-5.5 22.2-5.9 32-3.4 10.9 2.9 32.1 14 37 19.5l2 2.2-3.5-.8c-1.9-.5-9.1-.9-16-.8-10.9 0-13.5.4-20.4 2.8-4.4 1.5-10.7 4.2-14 6-3.4 1.8-11 5.1-17.1 7.2-16.6 5.7-18.6 7.7-12.2 12.1 1.7 1.2 5.8 4 9.1 6.3 5.1 3.5 6.5 4 11.5 4 7.8 0 14.9-2.1 26.5-7.9 12.7-6.3 13.1-6.4 21.7-5.5l7.1.7-3.3 1.9c-7.5 4.4-22.5 26.3-26.8 39.1-2.8 8.2-2.8 16.7 0 19.3 4.6 4.1 10.5.7 28.6-16.8 15.6-15 19.6-17.2 31.5-17 19.4.2 28.3 4.4 49.3 22.7 9.2 8 12.5 9.3 17.5 7.3 3.3-1.4 3.5-1.3 14.5 6.2 13.9 9.4 31 22 38.4 28.3 12.1 10.3 24 18.7 31.9 22.6 13.1 6.6 26.3 8.8 32.6 5.6 1.6-.9 3-1.4 3.2-1.2.1.1 0 2.1-.3 4.5-.6 4.2-.6 4.2-4.7 4.2-5.9 0-17.8 3.2-27.3 7.3-12.4 5.4-24.7 13.9-34.9 24.3l-9.1 9.2-2-4.1c-1.1-2.3-4.4-7.4-7.3-11.2-2.8-3.9-11.5-16.7-19.3-28.5-16-24.2-23.9-34.4-33.2-42.6-5.7-5.1-6.3-5.9-5.4-8.1 2.5-6.6-1.3-12.3-11.3-16.8-8.5-3.9-21.3-4.7-27.9-1.8-14.4 6.4-42.9 28.6-42.9 33.4 0 2.3 3.8 4 6.2 2.8.9-.5 1.8-.9 2.1-.9.2 0-5.1 5.5-11.7 12.3-6.7 6.7-16 16.8-20.9 22.4-4.8 5.6-13.8 15.3-19.9 21.5-14.8 14.9-27.9 29.4-35.7 39.6-3.5 4.5-6.6 8.2-6.7 8.2-.2 0-3-2.4-6.3-5.3-7.6-6.8-15.4-9.3-21.6-6.8-1.6.7-2.9-.1-6.6-4-4-4.3-5-4.9-8.6-4.9-2.6 0-5.3.8-7.5 2.4l-3.5 2.4-.5-6.3c-.4-4.3-1.5-8.1-3.6-12.1-1.7-3.3-3.6-8.8-4.2-12.4-2.2-12.7-16.7-38.2-26.7-47-4.8-4.2-13.5-8-18.4-8-6.6 0-12.7 4.6-16.7 12.5l-2 3.9-.7-6.1-.7-6.1-6.6.5c-14.8 1.2-17.7 5.7-13.7 21.2.9 3.5 1.9 14.8 2.6 27.3 1.7 35.4 4.3 53.9 9 63.1 1.1 2.1 4.8 7.1 8.2 11 3.4 4 8 9.7 10.2 12.7 2.2 3 8.5 10.9 14 17.5 5.6 6.6 12 14.9 14.3 18.4 2.4 3.5 6.9 9.5 10.1 13.5 8.8 10.8 24.1 31.6 24.1 32.7 0 3 13.6 17.9 16.3 17.9 1.3 0 11.2-10.7 14.2-15.3 1.8-2.8 1.8-2.8-1-5.7l-2.8-3 5.9-2.6c3.2-1.5 7.5-4.1 9.5-5.8 5.2-4.4 10.8-8.7 15.4-11.7 6.5-4.3 13.1-11.9 16-18.7 2.1-4.7 3.2-6.1 4.4-5.7 4.5 1.7 9.7 1.5 12.9-.4 4.3-2.8 5.5-6.2 4.9-14.3l-.4-6.8 11.1-9.2c14.1-11.8 26.4-22.7 39.1-34.9 5.5-5.3 11.8-11.1 14-12.9 2.2-1.8 11.1-10.5 19.8-19.2l15.7-16v5.9c0 11.1 4.1 28 11.8 48.8 1.6 4.4 4.1 12.9 5.6 19 2 8.5 4.3 14.3 10.2 26 4.1 8.2 9.7 18.4 12.3 22.5 15.4 24 19.1 29.3 25.9 37.3 4.6 5.4 10.2 10.6 14.4 13.4 5 3.4 6.7 5.1 6.3 6.2-1.7 4.4-2.7 13.4-2.2 20.6.8 9.8 3.1 18.2 9.7 34.9 11.8 29.8 15.4 46.7 13.5 64.1l-.7 6.8-29.6-.6c-33.2-.6-50.6-2.4-79.8-8.2-90.6-18.3-175.1-67.4-236.5-137.3C213.3 812.1 177.4 729.7 168 638c-4.1-40.3-1.1-93.6 7.5-130.6.4-1.7 1.4-2.2 6-2.7 8-.8 17.6-5.6 23.5-11.8 7.9-8.3 18-31.3 18-41.1 0-3.6 1-3.5 7.7.3 6 3.5 11 4 14.8 1.5 2.9-1.9 5.2-5.4 12.4-18.8 4.1-7.7 5.2-10.5 5.1-14-.1-2.4.6-6.4 1.6-8.9 2.6-6.8.9-11.8-5.5-16.4l-4.8-3.4 1.1-6.2c1.1-5.6 1.5-6.3 4.9-8 5.9-3.1 14.3-12.3 18.2-20.1 1.9-3.9 3.5-7.6 3.5-8.2 0-.6 1.2-1.7 2.8-2.4 2.4-1.1 14.9-16 19.7-23.5.9-1.5 2.2-2.7 2.9-2.7 2.3 0 13.3-8.2 20.3-15.1 7.1-7.1 12.5-15.5 13.7-21.5.7-3.1 1-3.2 6.9-3.8 11.6-1.3 24.5-8 36.1-18.7 10.3-9.6 12.2-13.9 15.6-34.9 2.7-16 2.3-15.6 5.5-6 3.7 11.4 5 13.7 8.5 15.5 4.2 2.2 5.7 2 19.8-2.6 9.3-3 13.4-4.8 15.2-6.8 2.1-2.4 3.1-2.7 6.7-2.3 5.8.6 25.8-6.1 29.3-9.8 1.9-2 3.1-2.5 5-1.9 3.3.9 5.2.4 19-4.3l11.5-3.9 8.5 1.2c10.5 1.5 21.3.1 30.4-3.8 3.3-1.4 7.2-2.5 8.6-2.4 1.4.1 10 .4 19.1.7 15.2.5 16.7.4 18.9-1.4 2.3-1.9 2.4-1.9 5.6.3 2.8 1.9 5.1 2.3 17.6 2.8zm159.1 143.8c23.7 4.8 44.8 17.2 68.5 40 8.9 8.7 9.3 9.3 11.2 16.2 1.7 6.5 2.6 14.3 2.2 20.6-.2 1.9-.8 1.4-4.1-3.5-2.2-3.3-6.3-8.2-9.1-10.9l-5.2-5 4.8 7.4c5.5 8.7 10.4 19.5 10.3 23.1 0 1.4-1.2 5.2-2.7 8.5l-2.8 5.9-3.5-7.4c-2-4.1-4.6-8.6-5.8-10l-2.2-2.5 2.1 4.2c2.3 4.9 5 15.4 5 20.1 0 2.6-4.3 11.2-5.6 11.2-.1 0-1.7-4.6-3.4-10.3-22.7-73.5-92.5-102.4-151.3-62.5-11.5 7.8-27.6 24.9-36.6 38.8-14.5 22.4-19.8 62.3-12.8 96.8 2 9.7 2.1 11.2.8 11-2.4-.5-5-8.9-7.2-23.7-4.5-30.1-4.3-38.9 1.5-61.2 5-18.9 5-19.3 1.6-10.9-11.2 27.5-13.5 61.2-6 86 2.1 7 1.1 7.8-2.3 1.7-4.6-8-8.2-34.1-7.4-52.7 1.3-27.8 9.1-51.6 23.8-73 8.9-13 16.9-21.1 31.3-31.9 18.2-13.7 29-19.3 45.7-23.7 19.1-5 41.9-5.9 59.2-2.3zm-22.5 33.5c4.2.8 11.4 3.1 16 4.9 30.1 12.2 49.6 36.2 61.6 75.7l3.4 11.2-4.7 5.8c-2.5 3.1-4.9 5.7-5.3 5.7-.4.1-2.2-2.7-3.9-6.2-4.1-8.1-10-16.7-15.9-23.3-2.7-2.9-5.4-6.3-6.1-7.6-4-7.5-13.8-16.2-24.5-21.6-7.8-4-13.3-5.4-22.4-5.8-4.1-.1-12.9-.6-19.5-1-29.7-1.7-47.7 6.8-65.7 31-13.6 18.2-19 39-16.8 64.3 1.3 14.9 6 27.6 17.3 46.6 3.1 5.3 4.3 8.7 5.4 15.3 1.3 8.7 4.7 16.8 10.6 25.3 1.8 2.7 2.4 4.2 1.5 3.9-.8-.4-4-.9-7.1-1.3-5.6-.7-5.7-.8-8.7-6.3-2.9-5.4-3-5.9-1.8-10.5 1-4.2 1-5.8-.5-11.5-2.4-9.3-9.9-23.8-16.3-31.5l-5.3-6.4-2.2-13.4c-2.6-15.6-3-39.4-.9-54.9 2.2-17.1 7.8-32.7 15.7-44.3 15.3-22.3 38.9-39.2 61.8-44.2 8.3-1.9 25.1-1.8 34.3.1zm115.8 18.9c4.4 4.3 5.6 6.5 7.5 12.5 1.9 6.3 2.1 8.8 1.7 19.4-.6 14.1-1.7 17.4-8.6 25.5-2.7 3.1-5.9 7.1-7.2 9-1.2 1.8-4.5 5.9-7.2 9l-5 5.6.6 5.7c.3 3.2.9 8.4 1.2 11.6.5 5.1.3 6.6-2.1 11.1-2.3 4.6-18.7 23.1-20.4 23.1-.3 0-.6-7.1-.7-15.8-.1-11.1-.6-17.5-1.8-22.1l-1.6-6.4 8.8-9.1c10.7-11.1 14.1-15.9 19.9-28.4 9.1-19.4 9.7-21.5 9.7-34.2-.1-8.9-.5-12.9-2.1-17.7l-2.1-6.2 2.1 1.1c1.2.6 4.5 3.4 7.3 6.3zm-110.3 28c9.4 2 18 6.8 26.7 15.2 9.7 9.2 13.7 15.8 15.7 26.2 1.6 7.9 1.6 8.3-.6 15.8-1.3 4.3-3.4 10-4.9 12.6-2.7 5.1-14.7 18.1-19.4 21.1-2.6 1.7-2.7 1.7-8-1.8-7.8-5.2-15.8-7.7-26.8-8.3-17.3-1-31.7 3.3-42.3 12.7-4.3 3.8-16.6 18.2-18.7 22-1.1 1.9-6.3-1.7-14.8-10.3-6-6.1-6.4-6.8-8.8-15.8-3.7-13.8-3.2-24.1 2.2-40.9 4.3-13.3 6.9-17 15.2-21.3 8.9-4.7 19.5-7.1 25.2-5.8 4.5 1 9 3.6 9 5.2 0 1.9 1.8 0 2.4-2.6 2.7-10.7 17.2-22.1 31-24.4 7.5-1.3 9.4-1.2 16.9.4zm-301.2 23.3c7.4 8 21.9 24.9 25.2 29.5 4.7 6.3 8.7 16 11.8 28.8 1.7 6.7 3.8 13.3 4.7 14.7 1.5 2.3 1.5 2.4-.3 1.9-4.2-1.4-17.1-2.7-19.7-2.1l-2.8.6v-6.1c0-3.4.3-6.1.6-6.1s1.9.8 3.5 1.7c4.6 2.8 4.6.6-.1-4.2-2.4-2.5-4.2-4.6-3.9-4.8.2-.2 1.9-1 3.7-1.7l3.4-1.3-3.9-1.4c-2.1-.8-5-1.7-6.5-2-3.3-.6-3.4-1.4-.8-7.2 1.1-2.4 2-4.5 2-4.8 0-.3-1.6.4-3.6 1.6-1.9 1.2-3.7 2.1-3.9 2.1-.2 0-3.1-3.2-6.5-7.2-7.2-8.5-9.7-15.5-10.7-29-.8-10.9.2-11.3 7.8-3zm421.7 6.5c.6.7.9 2.2.7 3.3-.2 1-.6 3.2-1 4.7-.3 1.6-2.2 4.7-4.3 7-2 2.3-4.6 5.2-5.6 6.5l-2 2.3 4.5-2c2.4-1.1 6.3-4.1 8.7-6.6 4.7-5.2 5.2-4.4 2.8 3.7-2 6.3-3.3 8.7-6.9 12.5-4.6 4.8-.9 4.3 4.3-.5l4-3.9v4.5c0 6.2-3.9 17-7.6 20.9-4 4.2-2.1 4.3 2.9.2l3.8-3.1-.7 2.8c-1.9 8.1-9.7 18.1-15.8 20.5-2.5.9-9.8 4.8-16.3 8.6-16.2 9.6-27.8 16.1-28 15.9-.1-.1.9-4 2.3-8.6 2.1-7.5 2.9-8.9 6.7-12 11.9-9.9 18.5-16.1 21.7-20.5 3.3-4.6 3.5-5.4 3.4-12-.1-3.8-.7-9.6-1.4-12.9-1.1-5.3-1-6.1.7-8.1 6.3-7.8 20.9-24.4 21.4-24.5.4 0 1.1.6 1.7 1.3zm-70.4 26.4c-1.8 8.2-4.5 16-12.5 37.5-4.9 13-8.9 24.5-8.9 25.5-.1 1.6-.2 1.6-1 .1-1-1.6.6-8.8 6.4-28.2 1.4-4.8 2.6-9.4 2.6-10 0-.7 1.8-3.6 4-6.6 4.2-5.6 8-14.4 8-18.5 0-1.4.5-2.5 1-2.5.6 0 .8 1.1.4 2.7zm.3 25c-4.2 10.9-9.3 24.5-11.3 30.3-3.8 11.2-13.5 35.3-13.9 34.8-.3-.3 2-7.9 8.8-29.3 1.9-6.1 5.5-16.2 7.9-22.5 2.4-6.3 6.2-17.2 8.3-24.2 3.9-12.6 4-12.7 5.9-10.8 1.9 1.9 1.8 2.2-5.7 21.7zm11.6-10.1c.5 3.1-.5 6.2-7 20.3-5.7 12.4-20.3 49-20.3 50.7 0 .2-6 2.4-6.5 2.4-.2 0 1.2-2.8 3.1-6.3 1.8-3.5 5.6-12.2 8.3-19.3 2.7-7.1 5.9-15.2 7.1-17.9 1.2-2.8 3.7-9.3 5.6-14.5 7.7-21.2 8.6-22.6 9.7-15.4zm-392.5 5.9c7.2 1.7 15.4 5.7 26.6 12.8l7.8 5-2.8 1.5c-1.6.8-3.8 2.2-4.9 3.2-2.8 2.5-8.4 5.2-9.4 4.6-.4-.3-.7-3.5-.6-7.1.2-3.6-.1-6.5-.6-6.5s-.9.8-.9 1.7c-.1 1-1.3 3.3-2.9 5.1l-2.8 3.3-7.5-2.9c-4.2-1.6-9.1-3.2-11.1-3.6l-3.5-.7 4.6-4.4c2.6-2.4 4.4-4.6 4-5-1-1-15 5.8-19 9.4-6.3 5.5-22.3 9.9-29.3 8-2-.6-5-2.3-6.8-3.9l-3.2-2.8 2.4-2.6c3.7-3.9 11-8.3 17.7-10.7 16-5.6 30.6-7.1 42.2-4.4zm391.4 17.2c-1.7 3.7-4.7 11.3-6.7 16.8-2.8 7.5-11.8 27.1-12.9 28.1 0 .1-1.1.5-2.4.9l-2.3.7 2.5-5c1.4-2.7 5.2-11.6 8.6-19.6 8.1-19.7 15.3-33.8 15.8-30.9.2 1.2-1 5.2-2.6 9zm-63.9-5.7c11.5 4.4 18.6 11.8 23.7 25.2 2.9 7.4 3.2 9.1 2.8 15.8-.4 5.9-1.2 8.9-3.8 14.2l-3.4 6.7-10.7 5c-12.4 5.8-31.1 12.4-50.1 17.6l-13.1 3.7-2.8-2.9c-3.9-4-13.6-21.3-15-26.8-.6-2.5-.9-8.1-.7-12.4.4-6.4 1.1-9.2 4-15.2 3.2-6.6 12.4-19.6 13.3-18.7.2.1-.7 3.4-2.1 7.3-2.4 7.3-3 11.5-1.5 11.5.4 0 3.1-3.1 5.9-6.8 5.9-8 8.3-10.3 8.9-8.5.2.7 1.8 2.8 3.4 4.9 1.6 2 2.9 4.5 2.9 5.5 0 2.2 2.1 6.9 3 6.9.4 0 1-2.6 1.3-5.8.4-3.1.9-8.6 1.3-12.1l.7-6.4 9.8.7c11.3.7 12.6-.3 6.5-4.9-1.9-1.4-4.2-3.8-5.1-5.2l-1.7-2.6 8.3.5c5 .4 10.8 1.5 14.2 2.8zm-262.1 14.5c3.5.8 7.9 1.7 9.9 2 9 1.3 18.9 10.5 23.8 22.2 3.1 7.4 7.8 13.7 18.5 24.7 9.9 10.2 11.6 14.1 9.7 21.5-.6 2.4-.9 4.6-.7 4.8.7.7 4.6-5.9 4.6-7.7.1-1.1.6-.9 2 .8 2.5 3 1.4 6.8-4 13.2-2.3 2.8-3.7 5-3.1 5 2.9 0 8-3.1 10.8-6.4 2.5-3.1 3.2-3.4 3.7-2.1 2 5.4-15.4 17.6-22.6 15.8-2.7-.7-7.8-4.1-7.8-5.2 0-.4 1.8-1.7 4-3 4.7-2.6 6.3-4.5 2.5-3.1-1.4.5-5.3.7-8.6.3-5.8-.6-6.5-.9-13.3-7.2-3.9-3.7-9.2-7.8-11.7-9.3-5.6-3.3-23-11-23.5-10.5-.3.2 3.1 2.5 7.5 5 8.9 5.2 10.9 7.1 6 5.7-5.6-1.6-17.2-2.2-25.4-1.2-4.4.5-8.2.8-8.4.6-.2-.2.3-2.3 1.2-4.6.9-2.3 1.5-4.3 1.3-4.5-.2-.3-2.9 3.3-6 7.9-3.1 4.6-6.7 9.6-8 11.2l-2.4 2.9-1.2-4.4-1.3-4.4-2.3 8.5c-2.4 9-4.4 11.5-13.6 17.7-3.7 2.5-3.9 2.5-6.4.8-2.2-1.4-2.5-2.2-2.1-4.8 1.5-8.9 6.5-18.4 18.1-34 7.3-9.9 10.9-11.8 23.1-12.5 11.9-.6 13.4-1.5 7.3-4.1-6.8-2.9-18.5-5.1-27.3-5.1-6.8 0-7.6-.2-7.1-1.8 1.4-4.7 1.7-7.2 1-7.2-.5 0-3 2.1-5.6 4.7l-4.8 4.8-7.3-.4-7.2-.3 2.8 2.2 2.7 2.2-2 2.8c-2.5 3.5-11.3 7-17.4 7-4.6 0-15-4.5-18-7.9-1.7-1.9-1.7-2 2.1-3.9 2.1-1.1 8.5-3.6 14.3-5.7 5.8-2.1 12.7-4.8 15.3-6.2 11.2-5.6 26.6-7.6 40.4-5.2l6.3 1.1v4.4c0 2.4.3 4.4.7 4.4.4 0 1.7-1.2 2.9-2.8l2.2-2.7 2.9 2.6c2.8 2.7 16.6 11.9 17.8 11.9 1 0-5.8-9.1-8.4-11.1-3.3-2.7-2.3-3.1 4-1.8 11.9 2.5 18 7.7 21.5 18.1 1.7 5.1 3.1 6.8 3.9 4.6.5-1.4-.8-5.6-6.3-20l-3-7.7 4.7-.3 4.6-.3-3.2-1.8c-5.3-2.8-18.3-6.5-25.8-7.2-8.7-.8-16.9-4.5-19-8.5-3.1-5.9-.3-7.1 15.2-6.4 5.1.2 12.1 1 15.5 1.9zm381.2 5.7c4.6 4.2 4.3 6.1-1.6 10.1-2.9 1.9-7 4.1-9 4.8-5.8 2-4.6 3.3 2.4 2.6 6.6-.6 9.1.2 10.8 3.3.8 1.5.6 2.9-1 6-1.1 2.2-2.2 4-2.5 4-.2 0-3-.7-6.2-1.5-5.3-1.4-13.7-2-10.3-.8 5.4 2 8.6 4.1 11.1 7.5 2.4 3.4 2.6 4.4 1.8 6.6-1.4 3.5-4.8 7.2-6.8 7.2-2.7-.1-4.8-2.3-8.6-9.3-4.8-8.8-6-9.4-5.2-2.9.3 2.9.5 5.2.4 5.2-.1 0-2.3-1.1-4.9-2.4-2.6-1.3-7-2.7-9.8-3.1l-5.1-.7 4.5-3.2c5-3.4 6.2-5.5 1.9-3.2-1.6.7-6.7 2.8-11.5 4.4-10 3.6-15.9 6.4-20.6 9.9-4.6 3.4-32.9 16.4-48.9 22.3-7.3 2.7-19.4 8.1-27 11.9-19.1 9.5-31.7 14.1-39 14.1-11.3 0-20.2-7.5-14.4-12.1 1.8-1.5 3.9-1.9 9.7-1.9 6.3 0 8.5-.5 16.2-3.9 4.8-2.1 12.3-4.9 16.6-6.1 13.3-3.7 43.2-15 57.6-21.8 4.7-2.2 12.1-5.6 16.5-7.7 21.5-10 30.4-14.7 35.3-18.5 9.6-7.4 39.3-22.9 43.9-23 .7 0 2.3 1 3.7 2.2zm-241.7 7.2c19.3 8.2 18.9 7.9 25.5 21.2 5.3 10.9 5.9 15.8 2.4 21.8-1.6 2.8-3.6 4.8-5.1 5.2-3.1.8-15.5-2.9-18.6-5.6l-2.4-2 3 .2c5 .3 9.5-.2 9.5-1 0-.4-3.9-2.3-8.8-4.2l-8.7-3.5 5.5-.5 5.5-.5-4.8-2.4c-2.6-1.3-5.3-3.1-6-4.1-.7-.9-3.1-2.7-5.4-3.8-2.3-1.2-4.5-2.6-4.8-3.2-.4-.6.8-.2 2.7 1 3.3 2 12.8 2.9 12.8 1.2 0-.4-1.2-1.5-2.7-2.4-3.1-1.8-17.6-14.9-17.1-15.3.2-.2 3.5 1.2 7.3 3.1 7.1 3.4 10.5 4.2 10.5 2.4 0-.6-.4-1-.8-1-1.4 0-14.2-12.6-14.2-13.9 0-.7 1.5 0 3.4 1.4s7 4.1 11.3 5.9zm202.8 39.1c12 3.1 21.6 11.5 32.1 28.3 3.7 5.9 8.3 12.6 10.1 14.9 1.8 2.3 3.3 4.4 3.3 4.7 0 .3-1.8.6-4 .6s-4 .3-4 .7c0 .5 3.7 2.4 8.2 4.3 4.5 1.9 9.4 4.6 11 5.8 2.6 2.2 2.8 2.9 2.8 9.3s-2.7 16.8-5.1 19.4c-1.2 1.2-1.2 3.5 0 3.5.4 0 2-1.7 3.4-3.8 1.5-2 3.8-5.1 5.3-6.7l2.6-3-.7 4c-.7 4.7-6.3 16.9-10.5 23.2-1.7 2.4-3 4.6-3 4.9 0 1.5 4.8-3 8.7-8.1 4.5-5.9 4.6-5.9 3.9-2.5-.3 1.9-2.1 6.4-3.9 10-2.7 5.5-4 6.9-8.2 9.2-6.8 3.6-11.1 8.9-12.6 15.2-.6 2.8-.9 6.2-.8 7.5.4 2.2.6 2 3.6-2.1 6.9-9.7 12-13.5 29.3-21.9 9.1-4.4 18.7-9.2 21.3-10.5l4.8-2.5 2.6 2.1c2.6 2 4.9 2.5 7.7 1.4 2.2-.8 2-2.1-.4-2.9-1.1-.4-2.8-1.7-3.6-3-4.9-7.4 8.7-19.4 21.9-19.5 7.2 0 10.7 2.8 10.7 8.5 0 8.7-6.2 15.4-19.1 20.6-4.6 1.9-11.2 4.8-14.7 6.6-3.4 1.8-6.4 3.3-6.6 3.3-.3 0-1.2-.8-2.2-1.7-1.6-1.6-1.8-1.6-3.5.6-1.1 1.3-2.9 5.5-4.1 9.5-3 10-4.8 13.3-11.2 19.8-5.9 6-6.9 7.6-3.7 5.8 5.2-2.7 10.1.3 10.1 6.3 0 6.6 7.6 24.2 11.4 26.4.7.4 4.2 3.9 7.6 7.7 5 5.5 6 7.3 5.6 9.2-.7 2.7-.4 2.8 4.3 1.4 4.4-1.2 7.4.4 16.8 8.8 5.7 5.1 7.5 7.5 8.7 11.1 2.3 7.5 2.7 9.8 1.7 12.4-2.3 5.9-8.6 3.8-15.6-5.1-3.5-4.4-4.5-6.5-4.5-9.4 0-2 .5-4 1-4.3 1.6-1 .1-2.5-2.6-2.5-1.3 0-3.3.6-4.4 1.2-1.7 1.1-3 .7-8.7-2.1-3.8-1.8-8.9-4.6-11.5-6.2-8.1-5.2-9.5-5.3-23.6-1.1l-12.6 3.7 4.6 1.3c5.6 1.5 7.3 4 8 10.9.3 3.6 1.3 6.3 3.2 8.8 2.9 3.8 2.9 3.8 1 14.8-.4 2.7 0 6.1 1.5 11.2 2.8 9.4 2 15.3-2.2 17.3-3.8 1.8-8.1.7-11.2-3-3.4-4-3.5-11.1-.2-16l2.4-3.4-2.4-1.8c-2-1.5-2.3-2.3-1.8-4.9.4-1.8 1.1-3.6 1.6-4.1 1.5-1.6 1-2.4-1-1.9-3 .8-6.8-2.4-9.6-8-2.7-5.5-3.1-9-1.5-13.3.6-1.5.9-2.9.7-3.1-.9-.8-11.4 4.5-14.8 7.4-4.3 3.8-7.2 5.3-10 5.3-2.2 0-2.1.2 1 2.8 2.1 1.7 3.3 3.6 3.3 5.2 0 3.2-1.7 12.9-2.5 13.6-.3.3-1.5-.4-2.6-1.5-2.7-2.7-5-2.8-2.7-.2 1 1.1 1.9 3.5 1.9 5.3.2 2.8-.3 3.5-3 4.8-4.4 2-4.1 3.3.7 2.8 3.7-.3 4-.2 4 2.1 0 5.6-7.4 16-12.6 17.5-2.8.8-8.6-3.2-9.4-6.4-.9-3.8.5-8.9 3.4-11.9 3-3.1 3.3-6.3 1.1-11.4-4.2-10.1-.6-18.7 13-30.8 5.2-4.6 9.5-8.8 9.5-9.2 0-1.4-6 .3-13.5 3.8-10.4 4.8-18.6 11.3-25.2 20.2-5 6.8-6.8 8.3-13.4 11.8-4.3 2.3-10.8 6.9-14.9 10.8-7.9 7.3-11.2 8.9-13.7 6.4-1.5-1.4-1.5-2 .1-6.2 1-2.5 3.8-7 6.2-10 4.2-5.2 4.8-5.5 9-5.5 4.7 0 5.2-.5 3-3.5-1.3-1.9-.8-2.4 6.2-8 4.1-3.3 9.6-8.1 12.2-10.7 4-4 5.5-4.8 10.1-5.5 3-.4 5.8-.6 6.2-.5.5.2.7-.3.5-1-.3-.7-1.7-1.5-3.1-1.8-6.9-1.3-8.4-6.7-4.2-14.9 2.8-5.7 5.8-7.1 14.5-7.1 3.1 0 6-.3 6.3-.7.4-.3-1-1.6-3-2.8-4.3-2.3-5-4.3-5.2-14.8-.1-8.1 1.3-12 6.6-17.5 3.5-3.7 4.5-4.2 8.5-4.2 3.4 0 5.2.6 7.1 2.4 1.5 1.4 2.9 2 3.3 1.5.3-.5.5-4.9.5-9.7-.1-4.8.1-17 .3-27.1.3-10.1.3-18.1 0-17.8-1.6 1.5-6.4 30.2-6.4 37.9 0 .5-.4.8-1 .8s-.9-7.3-.9-18.8c.1-13-.4-21.3-1.5-27.2-.9-4.7-1.9-14-2.3-20.8-.5-10.5-.8-12.2-2.2-12-1.8.4-7 9.3-7.1 12 0 1.6-1.1 1.7-11.7 1.2-6.5-.3-13-1-14.5-1.4-3.7-1.2-3.5.1.2 2.9 3.1 2.2 10.3 3.8 19.3 4.3 2.7.1 5 .5 5.3 1 .7 1.1-7.3 1-19.1-.3-15.8-1.7-16.5-1.9-18.7-4.5-2.8-3.2-4.8-3.1-4.8.2 0 4.4 5.6 8.6 15.1 11.7 9.9 3.1 17.6 4.7 23.2 4.7 3.1 0 3.8.3 3 1.1-1.4 1.4-24.7 1.8-31.7.5-6.3-1.1-5.5.7 1.8 3.9 7.8 3.4 20 5.8 26.3 5.2 3.9-.4 5.3-.2 5 .6-.7 2.3-8.2 4-19.2 4.5l-10.9.4 4.6 2.4c3.3 1.7 7.2 2.6 13.3 3 7.1.6 8.5 1 8.3 2.3-.4 1.9-15.3 4.4-20.7 3.4-2.6-.4-3.2-.3-2.6.7 1.4 2.2 8.9 5 13.8 5 3.4 0 4.7.4 4.7 1.4 0 1.1-2.1 1.6-7.7 2.1-4.3.4-8.7 1.1-9.8 1.5-1.8.7-1.7.9 1 2 1.7.6 5.2 1.6 7.9 2.1 6 1.1 6.1 1.2 4.6 3.9-1.1 2-1.6 2.1-9.8 1.5l-8.7-.6 2.5 2c1.4 1.1 4.6 2.8 7.3 3.7 5.1 1.7 5.4 2.1 3.5 4.7-1.1 1.4-2.2 1.5-7.3.7-3.3-.5-7-1.2-8.2-1.6-3.7-1.1-2.7 1.2 2.5 5.2 2.6 2.1 4.9 4 5.1 4.1.3.2-.2 1-1 1.8-1.6 1.6-5.5 1-12.1-1.9-2.1-.9-3.8-1.3-3.8-1 0 .3 2 3.4 4.3 6.8l4.4 6.3-2.2 2.7-2.2 2.7-2.8-4.6c-2.9-4.5-5.1-6-4.1-2.8.3 1 .8 5.5 1.1 9.9.4 6.3.2 8.4-.9 9.3-1.2 1-1.6.2-2.6-4.6-.7-3.2-2.1-7.8-3.1-10.3l-1.8-4.5v14.2c-.1 14.3-1.2 18.5-2.5 9.5-.4-2.6-1.6-6.5-2.7-8.7l-1.9-4 .5 9c.3 4.9.2 10.6-.3 12.5-.7 3.2-1 2.4-4.1-9.5-3.9-15.3-6.1-20-14.8-31.7l-6.5-8.8-5.5 7.1-5.6 7.1 2.2 2.6c3.6 4.6 10 16.5 11.7 21.7 1.9 5.9 2.9 25.3 1.6 31l-.9 4-1.2-6c-.7-3.3-1.6-7.4-2.1-9-.7-2.7-.9-2.4-1.1 2.5-.2 3-.4 7.3-.4 9.5-.4 11-1.1 11.1-4.5.8l-2.5-7.7-.6 11.4c-.7 12.8-.6 12-1.8 12-.5 0-1.2-2.4-1.5-5.3-.8-6-2.6-9.9-2.6-5.6 0 2.2-2 10.4-3.6 14.9-.4.9-1.3-.8-2.3-4l-1.7-5.5-.6 4.3c-.6 4-1.4 6.1-2 5.1-.2-.2-2.3-4.5-4.8-9.4-5.6-11.3-21.7-35.8-23-35-1.2.8-.6 1.9 7.3 14.8 7.4 12.3 10.7 20.2 14.6 35.6 4.9 19.6 6.4 32.8 6.5 58.6.1 27.4-.7 32-10.9 62.1-3.6 10.5-6.5 19.9-6.5 20.9 0 4.5-1.1-.1-3-13-6.3-42.8-23.6-89.7-42.5-115.4-3-4.1-4.1-6.3-3.3-6.6.7-.3 4.1-1.3 7.6-2.4 3.7-1.1 8.2-3.5 10.9-5.7l4.5-3.7 2 2.4c1 1.3 4.2 6.1 7 10.7 2.8 4.5 5.3 8.1 5.5 7.9.7-.8-8.3-18.7-13.3-26.3-9.1-13.8-19.9-21.7-29.9-21.8-9.3-.1-16.6 5.2-27 19.9-3.8 5.3-8.5 10.8-10.4 12.1-2 1.3-4.8 3.3-6.4 4.4-1.5 1.3-2.5 1.6-2.2.8.2-.7 2.1-6.5 4.1-12.8 3.8-12.2 6.6-17.9 11.6-23.5 4.2-4.8 1.1-4.7-4.2.1-9.3 8.4-18.3 27.3-25 52.7-3.6 13.3-5.9 20.1-5.9 17.2-.1-.6 1.1-5.3 2.4-10.5 1.4-5.2 3.2-15.7 4.1-23.3.8-7.6 2.2-15.9 2.9-18.4.8-2.6 1.2-4.9 1-5.2-.9-.8-4.6 8.9-6.6 17.2-1.1 4.5-3.6 14.7-5.7 22.7l-3.7 14.5-.6-11.5c-.3-6.3-.6-10.6-.7-9.5-.5 4.8-6.9 30.7-7.5 29.9-.3-.5-1.1-4.7-1.8-9.3-1.3-8.8-2.7-8.8-2.8-.1-.2 6.6-1.5 7.9-3.1 3-.7-2.2-1.6-4-1.9-4-.3 0-.4 2.5-.3 5.5.2 3 0 5.5-.5 5.5-6 0-40.4-68.5-55.5-110.5-8.3-23-13.4-53.1-12.4-72.5.6-12.4.2-12.4-3.5 0-1.6 5.3-3.2 8.4-5.4 10.5-1.8 1.6-7.4 7.7-12.5 13.5s-15.2 16.6-22.4 24c-7.2 7.4-12.2 12.7-11.1 11.9 1.1-.9 8.8-7.2 17.1-14.1 8.3-6.8 15.7-12.8 16.5-13.3.8-.5-3.1 4-8.7 10.1-5.5 6-14.8 16.3-20.6 22.9-13 14.7-21.3 22.8-34.3 33-5.5 4.3-13.1 10.8-16.8 14.4l-6.9 6.6-1.6-2.5c-1-1.3-5.4-7-9.9-12.7-7.6-9.4-8.3-10.6-8.3-14.7 0-7.7 4.5-19.6 10.5-28 3-4.2 4.6-7.2 3.6-6.7-2.9 1.6-14.9 14.8-17 18.8-1.7 3.3-2 3.5-2.1 1.4-.1-5.1 6.4-14.5 19.5-28.1 7.2-7.4 18.9-20.5 26.1-29 13-15.4 44.1-46 46.8-46 .8 0 5.5 1.6 10.5 3.5 16 6.2 25.6 4.1 42.2-9.3 4.3-3.4 7.9-6.2 8.2-6.2 1.3 0 17.8 21.7 25.5 33.5 4.7 7.1 10.8 16.6 13.7 21 7.6 11.7 11.9 20 15.5 29.2 1.7 4.5 4.4 9.6 6.1 11.4l2.9 3.1-2 2.8-2 2.8-7.3-7.7c-4.1-4.2-8.6-9.4-10.1-11.6-4.1-6.3-3-3.2 2.4 6.7 2.8 5 5 9.5 5 9.9 0 .5 1.1 2.8 2.5 5 2.4 3.7 2.7 7.9.6 7.9-1.4 0-8-7.7-12.1-14.3-2.3-3.7-4.4-6.7-4.6-6.7-.2 0 .7 2.3 2.1 5.1 1.4 2.7 4 8.7 5.6 13.2 1.7 4.5 3.4 8.6 4 9.1 1.3 1.4 1.1 2.6-.5 2.6-.8 0-4.3-3.8-7.8-8.5s-6.6-8.5-7-8.5c-.4 0 1 3.3 3.2 7.2 4.3 8.1 8.5 18.7 7.7 19.5-.3.3-2.6-1.7-5.2-4.4-3.4-3.5-4.4-4.1-3.6-2.3.5 1.4 2 5.8 3.2 9.8 2.8 9.2 1.6 11.3-3 5.1-3.6-5-3.9-3.9-1 5.6 1.2 3.9 2.5 11.7 2.9 17.5.5 6.9 1.5 12.5 2.9 16.2 3.2 8.2 4.5 7.5 3.7-2-1.8-20.3 4.3-37.4 24.1-67.4 9.8-15 17.6-23.6 29-32.2 17.1-12.8 33.1-20.2 53.1-24.4 6.9-1.5 12.7-3.2 12.9-3.8.3-.8-1.5-1.5-4.7-1.9l-5-.7V694c0-2.6.7-6.5 1.6-8.6.9-2 1.9-5.8 2.4-8.3 4.4-25.4 6.1-30.3 14.6-42.1 3-4.2 4.3-5.1 10.2-7.1 3.7-1.2 8.8-3.2 11.4-4.5 2.6-1.3 5-2.4 5.2-2.4.3 0-.6 1.7-2 3.7-6.8 9.9-14.9 29-18.5 43.1-1.8 7.3-2.1 10.7-1.8 23.7l.4 15.2-7.2 1.1c-9 1.4-15.7 4.4-27 12-15.8 10.6-26.6 22.3-34.9 37.7-4.4 8.2-4.2 8.2 2.2-.5 6.5-8.9 23.6-26.3 30.9-31.5 12.5-8.9 22.4-12.6 33.2-12.6h6.5l-.6-2.7c-.3-1.5-1.1-6.3-1.7-10.8-2.7-19.5 6.3-49.1 22.4-73.6 5.5-8.4 5.7-8.5 12.2-10.6 3.6-1.2 6.8-2.2 7.1-2.2.3 0-1.5 2.4-3.9 5.2-11.4 13.5-23.4 36.3-27.4 52.4-2.2 9.2-2.3 34.8-.1 41.5l1.5 4.6h-7.1c-7.5 0-14.7 1.9-22.8 5.9-9.6 4.9-30.3 24-40.9 37.9-6.4 8.4-7 9.8-1.7 4 7.4-8.1 34.2-30.6 42.6-35.7 10.4-6.4 16-8.2 25.3-8.2h7.7l-2-6.5c-4.2-14.5-3.2-32.5 2.8-49.4 5.9-16.5 21.9-42.3 32.6-52.4 1.8-1.7 9.2-5.8 16.3-9.1 7.2-3.3 16.8-7.9 21.5-10.3 4.7-2.4 9-4.6 9.5-4.8.6-.2-1.4 2.2-4.3 5.4-4.9 5.3-11.2 15.8-11.2 18.6 0 .6 1.8-1.6 4-4.9 8.7-13 22.7-23.8 34-26.2 5.4-1.2 7.1-1.1 13.5.5zm-255.4 33.9c4.1 1.9 13.3 5.2 20.6 7.4 7.2 2.3 15.4 5.3 18.3 6.7 2.8 1.4 8.2 3.5 11.8 4.7 3.7 1.1 11.4 4.4 17.2 7.4 14 7.2 24.7 9.2 31.3 5.8l3.1-1.7-1.6 2.4c-2.8 4.3-13.5 7.2-17.9 4.9-2.9-1.6-2.4.6.7 2.6 1.6 1.1 4.7 1.7 8.4 1.8 6.8.1 6.6 1.4-.8 4.6-5.1 2.3-4.9 3.1.9 3.9l4 .6-2.6 3.5-2.6 3.5 2.3.5c2.1.5 1.9.8-2.3 5.3-4.3 4.4-4.9 4.7-9.7 4.7-6.1 0-16.8-3.5-25.6-8.3-3.4-1.9-14-9.2-23.6-16.2-21.6-15.9-30.4-22-39.8-27.5l-7.3-4.3 3.6-2.4c2.9-2 6.5-6.8 6.5-8.7 0-.3-1.5.3-3.2 1.4-4.9 3-6.4 2.5-3.4-1.1 1.4-1.7 2.6-3.5 2.6-4 0-1.5 1.3-1.1 9.1 2.5zM524.4 634c4.3 1.8 9 4.3 10.4 5.5 2.4 2.1 2.5 2.4 1.2 4.3-2.5 3.4-16.8 14.2-22.4 16.8-7.3 3.4-14.3 3.2-24.8-.7-6.5-2.4-9.4-3-13.6-2.6l-5.3.4 5.8-5.9c6.1-6.3 14-12.4 23.9-18.4 5.3-3.2 6.5-3.5 11.4-3.1 3.2.2 8.8 1.8 13.4 3.7zm-247.3 39c7.4 4.8 21.1 25.5 27.1 40.5 3.6 9.2 3.6 14.8-.2 27-4.2 13.7-2.1 14.2 4 1l2.8-6 2.2 4.9c1.9 4.1 2.2 6.2 1.8 12.3l-.5 7.4 2.1-1.9c5.3-4.9 11.1-6.2 17.3-3.9 4.4 1.7 6.7 5.1 8.6 13 2.1 8.6 7.5 16.9 19.5 29.8 4.8 5.2 11.7 13.5 15.1 18.5 3.5 4.9 7.9 10.6 9.9 12.6l3.5 3.7-1.8 4.8-1.8 4.7-2.1-2.9c-3.7-5.1-7.9-9.2-7.1-7 .4 1.1 1.5 5.3 2.5 9.2 1.5 6.2 1.5 7.5.3 8.4-.7.7-1.5 1-1.7.8-.1-.2-2-3.2-4.1-6.7-6.3-10.3-6.7-9.8-2.6 4.3 1.8 6.4 1.8 7.1.4 8.8-1.5 1.6-1.8 1.5-4.2-3-3-5.4-7.3-11.4-7.8-10.9-.5.4 2.5 13.5 3.7 16.3.7 1.7.6 2.3-.4 2.3-1.4 0-4.9-4.2-10.4-12.5-3.7-5.5-3.7-5 .7 8 1.7 4.9 3.1 9.1 3.1 9.1 0 .1-.7.5-1.6.8-1 .4-2.8-.6-4.8-2.7-6.5-6.3-12.6-11.6-12.6-10.9 0 .4.7 1.8 1.6 3.1.9 1.2 3.3 5.6 5.4 9.6l3.8 7.3-2.9 2.8c-1.7 1.7-3.2 2.4-3.7 1.8-.5-.5-3.8-4.3-7.4-8.4-19.6-22.4-46-55-53-65.4-4.3-6.5-9.9-15.8-12.3-20.5-4.1-8.3-12.6-32.6-14-40.1-.9-5.4-3.8-16.1-4.1-15.7-.2.2 1.4 10.8 3.5 23.6 4.3 25.8 5.9 30.2 14.9 42.2 2.7 3.5 8.8 12.2 13.6 19.4 15.8 23.5 30.3 43.6 35.2 48.7 2.7 2.7 9.6 9.1 15.4 14.1 5.8 5 11.1 9.6 11.8 10.2 1 .9-.2 2.4-5.4 7l-6.7 5.9-6.1-6.5c-3.4-3.6-8.1-10.1-10.6-14.4-5.7-10.3-22.6-35-29.9-43.8-9.9-12.1-16.9-21-24.8-31.7-4.3-5.8-10.7-14.2-14.4-18.8-4.1-5.1-7.1-9.9-7.8-12.5-1.9-7.1-4-27-5.6-53.7-.9-14-2.3-28.6-3.2-32.4-1.5-6.4-1.5-7 .1-8.1 1.8-1.4 9.3-2.8 10.5-2 .8.5 1.6 6 3 22.3.5 5.1 1.1 9.5 1.4 9.8.2.2.6-2.6.9-6.3.5-7.5 2.9-13.2 7.4-17.7 3.5-3.5 6.3-4.6 11.5-4.6 3.1 0 4.7.8 8 3.7 10.7 9.7 19.5 28.3 20 42.6.1 2.2.4 1.4 1-2.3.9-6.2-.2-16.3-2.6-23-2.6-7.3-6.3-12.8-14.3-21.1-4.1-4.4-7-7.9-6.5-7.9s3 1.3 5.4 3zM868 700.7c.1 2.7.7 8.2 1.4 12.3 1.5 8.2 1.4 9-1.3 9-2.1 0-10 4.9-13 8.1-1.1 1.2-2.1 2.1-2.1 1.8 0-.4 10-27.3 12.1-32.7 1.9-4.5 2.9-4 2.9 1.5zm-88.1 45.8c7.4 11.1 11 22.4 12.6 40.1l.7 7-3.8 3.4-3.9 3.4-.7-10c-1.2-17.2-6.2-31.9-14.1-40.9l-3.4-4 3-3.7c1.6-2.1 3.3-3.5 3.8-3.2.4.2 3 3.8 5.8 7.9zm64.8-.8c-3.5 4.9-8.7 19.2-8.7 24.1 0 1.5-.9 6.6-1.9 11.4-2.4 11.5-5.8 16.6-20.1 29.9-11.4 10.6-18.5 19.3-21.4 26.3-2.8 6.8-1.8 15.8 2.1 18.3 4.4 2.9 9.4.3 20.3-10.1 5.2-5.1 12.7-11.3 16.5-13.9 4.1-2.7 8.8-6.9 11.4-10.2 4-5.3 11.9-12 12.8-11.1.2.2-.8 2.7-2.3 5.6-2.2 4.3-2.9 7.1-3.5 15.9-.5 7.1-1.6 13.2-3.3 18.4-2.3 6.9-2.5 8.3-1.5 12.2 3 11.9 16.7 14.1 24.4 4.1 3.1-4 10.4-28.1 13.1-42.6 1.5-8.6 4.1-16 5.5-16 1.3 0 1.7 1.3 2.8 7.9.8 4.6 2.2 8.1 5.1 12.6 4 6.1 4.1 6.6 4.9 17.8.8 12.6 1.9 15.4 7.4 18.7 6 3.7 12.5 1.7 17.7-5.2 2.8-3.7 3-7.6 1.4-30.9-.8-11.2-1.3-13.2-4.2-19.2-3.9-7.8-3.9-11.5-.1-13.6 3.3-1.8 6.3-1 13 3.4 2.9 2 8.4 5.3 12.3 7.3 7.5 3.9 15.6 10.9 15.6 13.3 0 2-18 28.5-27.3 40.4-20.9 26.6-50 55.8-75.4 75.7l-6 4.7-5.6-8.3c-6.5-9.5-29-32-38.2-38.2-7.9-5.3-24.2-14.5-33-18.5-3.8-1.8-10-5.2-13.7-7.6-5.8-3.8-6.8-4.9-7.4-8.1-.3-2-1.6-8.7-2.9-14.7-1.5-7.4-2-11.4-1.3-12.2.5-.7 4.6-3.3 9.1-5.9 12.8-7.4 47.3-39.6 57.2-53.4 2.9-4.1 8.3-10.9 11.9-15 3.7-4.1 8.7-10.1 11.3-13.2 2.6-3.1 4.9-5.5 5.1-5.3.2.1-1.2 2.5-3.1 5.2zm-491 11.3c5.2 3.1 17.4 13.3 22.3 18.6 6.2 6.7 19.9 24.2 23 29.5 1.4 2.3 3.9 6.4 5.6 9 1.7 2.6 3.4 6 3.8 7.6.6 2.4-.5 1.6-7.2-5.2-4.3-4.4-8.4-8.9-9-10-.6-1.1-1.4-1.7-1.8-1.2-.9.8 3.7 9.7 7.6 14.7 3 3.8 6.3 11 5.2 11-1 0-10.6-10.8-19.2-21.5-3.6-4.4-9.7-11.7-13.7-16.2-9.1-10.3-18.8-23.3-21.9-29.5-2.8-5.6-2.8-5.3-.8-7.2 2-2 2.2-2 6.1.4zm334.2 50.4c2.6 1.4 7.4 4.8 10.5 7.7l5.7 5.2-3.8 1.8c-2.1 1.1-5.3 2.9-7.2 4.1-2.5 1.6-5.4 2.3-11 2.6-6.6.4-8.5.1-13.8-2.2-3.4-1.4-7.8-2.6-9.8-2.6-4.4 0-4-.8 3.5-9.3 8.9-9.9 16.5-12 25.9-7.3zm-22.3 27.3c7.1 4 8.3 5 14.7 12.7 9.3 11 16.7 27.4 27.5 61.2 10.8 33.6 13.7 46.7 15.1 69 1.5 24.6-1.5 54.5-7.4 73.4-5.8 18.4-19.9 56-24.3 64.4-5.9 11.5-15.6 21.9-22.1 23.6-5.6 1.5-10.9.5-19.8-3.5-17.2-7.9-27.8-25.3-29-47.5-.5-8.1 0-12.4 3.1-29 4.6-25 5.9-40.6 4.6-55.7-1.7-18.8-3.8-27-13.8-53.3-5.4-14.1-7.6-25.3-6.9-35 .8-9.7 2.5-15.2 10.2-33.5 3.5-8.3 6.6-17.3 7-20.2 1-7.6 10.7-21.1 18-25.1 9.1-5.1 15.9-5.5 23.1-1.5zm102.5 51.2c9.3 3.3 20.2 8.6 26.9 13.3 12.4 8.6 13 8.8 7.1 2.3-2.9-3.3-8.1-7.9-11.5-10.3-8.1-5.7-9.4-8.2-2.5-4.6 14.6 7.3 23.6 14 37.6 27.7 15.9 15.6 20 20.5 27.3 32.8 13.2 22.3 17.9 33.1 29.4 67.2 12.1 35.7 16.5 44.8 38.4 79.2 13.2 20.8 18.5 27.7 27.9 36.6 11.4 10.7 22.9 17.4 34.1 19.8 7.4 1.6 24.5 1.3 32.2-.4 7.3-1.7 18.3-5.5 17.6-6.2-.2-.2-3.2.1-6.7.7-3.4.6-11.5 1.1-17.8 1.1-13.9 0-26.8-2.9-37.9-8.5-8.1-4.1-9.6-5.6-2.5-2.5 10.8 4.6 20.2 6.3 34.3 6.3 10.9 0 15-.4 21-2.1 48.8-14.1 81.8-46.4 90.4-88.4 1.8-9 4.7-42 4-46.4-2.4-14.9-9.2-42.8-12.4-51-2.8-7.2-11.8-22.1-16.7-27.5-6.6-7.3-22-19.1-29.3-22.4-13-5.9-26.9-7-38.3-3.1-6.2 2.2-5.5 2.9 1.4 1.4 5.7-1.2 18.8-.7 22.9 1 2.1.8 1.4 1-3.6 1-14.1.2-40.7 10.8-53.6 21.5-11.8 9.8-20.2 21.6-22.2 31.1-.4 1.8 1 0 3.5-4.7 11.8-22.2 39.3-39.6 67-42.3 3.8-.4 7.4-.3 8.4.2 1.2.7-.5 1.2-6.3 1.6-11.8.9-20.5 3.3-32.2 8.9-9.1 4.4-11.6 6.2-18.6 13.2-12.2 12.3-17.2 24.6-16.1 39.8 1.6 24.5 24.8 42.7 42.9 33.9 6.2-3 14.7-12.1 19.2-20.7 4-7.7 8.6-13.1 8.6-10.1 0 .9-2.5 6.5-5.5 12.4-5.4 10.6-5.4 10.7-2 7.3 1.9-1.9 5.7-7.3 8.5-12 5.2-8.8 5.9-8.9 3.6-.5-2.1 8.1-4.6 12.4-10.9 19.2-6.8 7.2-6.3 8.3.9 2 6.6-5.7 9.3-8.9 13.2-15.5l3.4-5.7-.7 4c-.4 2.2-1.8 6.6-3.1 9.7-2.9 7-3 8.1-.3 4.8 3.3-4.1 5.9-9.7 7.3-15.8l1.4-5.7.1 4.2c.4 18-17.7 38.6-43.4 49.5-7.3 3.1-22.3 1.9-32.1-2.6-16.3-7.5-28.4-23.3-32.5-42.7-1.5-6.9-.6-27.5 1.6-35.4 2.5-9.3 10.8-25.3 16.8-32.6 12.3-14.8 28.4-23.7 54.1-30 25.3-6.1 46.2-5.7 60.1 1.4 5.6 2.8 21.6 16.3 24 20.3 1.2 1.8 3.3 4.5 4.8 6 3.6 3.6 14.8 26.1 20.8 41.9 5.6 14.8 7.9 26.6 7.8 40l-.1 9-1.8-10c-2.2-12.5-3.3-16.6-7.7-28.5-3.8-10.3-6.3-14.5-3.8-6.5 5.2 16.9 7.8 36.2 7.9 59.5.1 16.5-.2 19.4-2.2 26.4-3.1 10.7-8 21.1-14.9 31.4-6.1 9.1-22.7 27.1-29.3 31.7-6.1 4.2-4 4.2 2.7 0 8.9-5.7 20.7-16.4 30.2-27.5l2.2-2.5-2 4.1c-4.5 9.4-23.2 30.4-36.2 40.9-10.1 8.2-22.7 16-35.1 22-22 10.5-33.5 13-57.5 12.3-14.1-.5-16.6-.8-23.3-3.3-11.8-4.3-28.2-13.3-35.9-19.7-23.9-19.7-54.8-72.2-67-113.9-8.6-29.3-22.6-56.8-37.8-74.4-15.3-17.8-40.5-41.7-48.8-46.3-7.8-4.3-3-3 5.8 1.6 4.1 2.1 10.5 7 16.5 12.5 9.1 8.5 19.8 16.4 20.8 15.4.3-.2-1.1-1.6-3.1-3.1-1.9-1.5-6-5.9-9.2-9.7-8-9.9-22.1-21.4-36.3-29.4-14.5-8.2-15.2-8.9-5.9-5.6zm.6 19.2c3.2 1.2 8.1 3.7 10.9 5.5 6.2 3.9 42 37.9 46.4 44l3.1 4.4-5.4 3.4c-9.4 6-30.8 17.7-41.7 22.9-19.9 9.3-48.5 20.5-49.6 19.4-.9-.9 2.5-16.8 6.7-31.2 2.6-9 6.5-19.2 10.9-28.5 7.5-15.7 9.5-22.3 10.6-34.3.4-4.2 1-7.7 1.5-7.7s3.4 1 6.6 2.1zm266.2 16.6c-6.2 8.5-19.2 24.6-27.3 33.8-8.4 9.6-25.8 27.5-26.7 27.5-2.6 0-4.5-15.4-2.9-24 3.1-17.4 16.6-31.3 36.9-38.1 6-2.1 23.3-5.9 23.9-5.4.2.2-1.5 3-3.9 6.2zm40.7-.8c9.6 6.3 18.8 17.2 23.2 27.5 1.2 2.6 8.4 22.8 11.2 31 2.5 7.6 3.4 23.6 2.2 40.4-2.8 37.9-8.4 54.1-24.7 72.3-10.6 11.8-15.2 15.7-29.4 25-15.6 10.3-25.2 14.4-40.5 17-13.1 2.3-18.7 2.4-30.1.4-26.3-4.6-44.3-18.2-62.4-47.5-4.3-6.9-8.3-13.5-9-14.7-1-2.1-.4-2.7 9.1-9.5 12.9-9 24.1-17.7 39.2-30.2 4.7-3.9 4.8-4 7.4-2.2 11.9 7.7 23.4 10.6 35 8.7 27.3-4.5 51.2-26.4 55.3-50.6 1.5-8.7.2-13.9-4.4-18.9-4.3-4.6-7.7-5.3-12.9-3-5.8 2.6-10.1 7.4-15.4 17.1-6.2 11.4-9.4 14.8-16.2 17.3-5.3 2-12.2 2.3-13.9.6-.3-.3 4.1-5.4 9.8-11.3 18.9-19.6 39.2-44.2 53.4-64.6 3.3-4.7 6.3-8.6 6.6-8.7.3 0 3.2 1.7 6.5 3.9zm-228.9 67.3c8 16.2 12.4 27.2 15.8 38.8 1.5 5.2 5.3 15.8 8.6 23.5 3.2 7.6 5.6 14.2 5.1 14.6-2.9 3-41.8 23.2-59.3 31-24 10.6-55.8 21.7-80.9 28.3-13.7 3.6-40.8 9.6-43.4 9.6-.9 0 .2-2.4 3.1-6.7 5.3-7.8 9.9-17.5 14.3-30 6.8-19 16.8-52.3 18.5-61.4l1.8-9.5 14.4-4.8c25.8-8.7 58.5-24 81.7-38.1 6.7-4.1 12.6-7.4 13.2-7.4.5-.1 3.7 5.4 7.1 12.1z"/><path d="M532.8 131.8c-10.8 6.6-5.5 31.2 6.7 31.2 8 0 12.1-5.3 11.8-15.2-.4-13.8-9.5-21.6-18.5-16zM741.5 150.9c-2.8 1.6-7.2 6.9-6.3 7.5.5.4 21.7 7.6 22.3 7.6.3 0 .5-2.1.5-4.8 0-5.7-2-8.9-6.6-10.8-4.4-1.8-6.3-1.8-9.9.5zM338.5 202.2c-4.1 3.2-5.7 7.7-4.4 12.4.6 2.2 1.3 4.1 1.5 4.3.5.6 19.4-12 19.4-12.9 0-.5-1.4-2-3.1-3.4-3.9-3.3-9.5-3.5-13.4-.4zM250.1 314.9c-3.4 8.9-3.9 13.2-1.5 15.5 3.6 3.7 9.9.8 12.3-5.7 2.1-5.5 1.4-9.4-2.5-13.7-2-2.2-4-4-4.4-4-.4 0-2.1 3.6-3.9 7.9zM195.9 360.9c-5.4 5.5-3.1 12.7 5.7 18.2 7.7 4.7 15.3 4.1 18.9-1.5 2.2-3.3 1.4-9-1.6-12.2-3.3-3.6-11.8-7.4-16.2-7.4-2.9 0-4.6.7-6.8 2.9zM958.3 312c-1.3.5-2.3 1.3-2.3 1.7 0 .4 3.1 5 6.9 10.1 7.3 9.9 7.6 10 11 3.5 3.6-7.1-1.8-16.4-9.5-16.2-2.2 0-4.9.4-6.1.9zM942.5 323.8c-3.2 4.3-2.7 11.3.9 15.1 1.6 1.6 4.7 3.6 6.9 4.3 3.4 1.1 4.6 2.4 8.8 9.3 2.7 4.4 5 8.4 5.3 9 .2.5 1.9-.4 3.7-2.2 2.4-2.3 3-3.5 2.2-4.5-.5-.7-6.3-8.6-12.7-17.6-6.5-8.9-12.1-16.2-12.4-16.2-.4 0-1.6 1.3-2.7 2.8zM995.5 373c-13.4 2.9-20.6 14-13.6 21.1 3.8 3.7 8.8 3.9 15.7.4 6.6-3.3 9.4-6.4 10.1-11.2.4-3.2 0-4.5-2.1-7-2.8-3.4-5.5-4.2-10.1-3.3zM626.3 212c-1.7.4-5.4 2.1-8.3 3.9-12.9 8-26 11.1-73 17.6-10.2 1.4-22.2 3.4-26.8 4.5-25.8 6.1-41.5 22-38 38.4.8 3.8 2.2 6.1 6.5 10.5 5 5.2 5.4 5.9 4.8 9.1-.9 4.8-5 13.3-7.6 15.6-2 1.8-2.1 1.8-5-1.6-5.3-6.4-5.6-9-3.3-30 .5-4.7.2-6.2-2.3-10.9-3.9-7.5-8.8-11.3-15.5-11.9-3.4-.3-6.5.1-8.8 1.1-3.3 1.4-3.3 1.5-.9 1.6 6.7.2 14.9 10.9 14.9 19.5 0 9.2-7 16.7-17 18.1-4.4.6-4.6.5-7.3-3.4-3.3-4.8-5.7-11.2-5.7-15.5 0-2.4-.3-2.7-1-1.6-3.3 5.1 1.4 17 8.8 22.3 6.5 4.7 7.4 4.9 11.8 2.1 4.7-2.8 6.3-3.1 4.1-.6-2.4 2.6-2.2 3.7 2.3 10.4 5 7.5 5.1 9.3.5 10.8-4.2 1.4-9.4.6-15.5-2.3-4-2-4.5-2.6-5.2-6.6-.4-2.5-2.3-7.7-4.2-11.7-3.8-8-2.8-7.5-17.1-8.9-5.7-.6-6.5-.4-12.5 3-13.8 7.8-22.6 15.7-44.1 40.1-25.3 28.6-35.7 37.8-50.2 44.3-8.6 3.9-12.7 7.5-12.7 11.2 0 3.7 2.4 8.4 4.5 9.3 3 1.1 10.9.7 18.1-1l7-1.7 4.4 2.9c5.8 3.9 14 4 22 .3 5.2-2.4 5.8-2.4 11-1.2 9.1 2.3 30.6 1.1 48-2.6 8-1.7 15.1-3.1 15.8-3.1.7 0 1.2 1.2 1.2 2.9 0 4 3.8 9.1 9.4 12.6 4.7 2.9 5.5 3 15.8 3H466v6.2c0 7.8.9 10.2 6.2 15.9 6.2 6.8 17.7 11.4 28.5 11.4h5.2l-.5 3.7c-.3 2.1-.7 4.6-.9 5.6-1 5.1 4.6 14.6 11.6 19.7 4.1 2.9 12.7 6 16.9 6 1.8 0 2.1.4 1.7 2.2-.3 1.2-.1 4.4.5 7.2 1.2 5.9 5.5 10.7 10.9 12.2 3.3 1 3.4 1.1 3.4 6.4.1 3 .6 6.5 1.3 7.7 1.9 3.5 6.2 6.3 9.7 6.3 3.1 0 3.3.2 3.9 5 .8 6 3.4 9.3 11.2 14 3.2 1.9 7.8 5.4 10.3 7.7 2.4 2.3 6.2 5.1 8.5 6.3l4.1 2 .8-7.7c1.4-14.2-1.8-28.8-7.6-34.1-2.4-2.3-2.5-2.4-1.1-7.7 2.5-9.3-.7-16.9-8.4-20.2-3.1-1.3-3.2-1.5-1.7-3.6 3.5-5 .3-18-5.8-23.6l-2.6-2.3 2.2-5.7c4.4-11.3 2.1-26-5.5-34.6l-4.1-4.6 2.1-2.2c3.2-3.5 5-7.9 6.2-14.9 1.2-7 0-14.9-3.6-22.5-1.6-3.2-8.8-10.3-10.6-10.3-.5 0 1.3-4.2 3.9-9.2 5.8-11.5 6.5-17 3.3-24.6l-2.2-5.2 3.3-3.9c1.9-2.2 4.7-5.8 6.2-8.1 2-2.9 4.4-4.9 8.2-6.6 4.7-2.2 5.6-3.1 6.6-6.4.7-2.1 4.3-7.8 8.2-12.7 3.8-4.8 8-11 9.3-13.7 1.5-3.2 3.9-6.2 7-8.5 6-4.5 7.9-7.7 10.4-17.7 1.7-6.6 2.8-8.6 6.4-12.4 7.4-7.8 8.6-9.8 8.6-15 0-2.9-.6-5.2-1.4-5.9-2.2-1.9-6.8-2.8-10.3-2.1zm1.7 6.2c0 .7-.5 3-1.1 5.1-2.1 7.8-11 14.6-27.4 20.9-13.2 5.2-14.2 5.3-14.9 2.3-1.1-4.3 1.1-10.1 5.1-13.4 3.8-3.1 8-5 26.3-11.9 12.3-4.6 12-4.6 12-3zm-54.9 19.5c-3.6 6.7-14.2 12.4-28.4 15.4-13.6 2.8-15.2 2.5-12.7-2.1 1.3-2.4 6.2-4 12.6-4 5.9 0 8.7-.8 7.8-2.1-.3-.6-4.1-.7-9.2-.3-8.2.7-8.6.6-7.3-1 2.8-3.4 7.3-4.7 19.4-5.7 6.7-.5 12.7-1.2 13.2-1.4.6-.2 2-.4 3.3-.4 1.9-.1 2.1.2 1.3 1.6zm-53.1 6.2c0 1.5-6.4 8.9-12.8 14.7-10.3 9.2-14.1 18.2-11.2 25.8 1.2 3.2.6 3.2-4.5.3-5.1-2.9-8.5-8-8.5-12.6.1-10.1 11-22.4 24.3-27.2 5.4-1.9 12.7-2.5 12.7-1zm92.4 6.3c-1.5 5-3.7 8-8.1 11.2-6 4.3-17.8 8.5-27.1 9.4-7.1.8-7.2.8-7.2-1.5 0-5 4.4-10.5 10.9-13.8 3-1.5 26-7.1 30.4-7.4 1.5-.1 1.7.4 1.1 2.1zm-53.1 12.1c-4.2 7.1-15.1 11.3-26.9 10.4-7.6-.6-17-3.9-15.9-5.7.3-.6 4.7-1 10.1-1 5.6 0 9.4-.4 9.4-1s-2.6-1-5.9-1c-3.3 0-6.2-.4-6.5-.9-1.2-1.9 7.4-3.9 19.4-4.6 6.8-.4 13.6-1.1 15-1.5 3.3-.9 3.8 1 1.3 5.3zm35.7 10.4c0 .4-.9 2.6-2.1 5-1.7 3.5-3.2 4.8-8.5 7.4-5.8 2.9-7.7 3.3-16.7 3.6-11.9.5-13.6-.2-11.8-4.5 2.9-7 9.4-10.1 21.6-10.2 3.3-.1 7.8-.5 10-.9 5.3-1.1 7.5-1.2 7.5-.4zm-56.2 1.8c4.5 0 8.2.1 8.2.3 0 3.9-11.9 10.2-19.2 10.2-4.7 0-6.3 1.2-3.2 2.4.9.3 3.6.6 6 .6s4.4.4 4.4.9c0 1.6-4.2 6.1-7 7.6-5.9 3-16.3 1.4-20.1-3.1-1.3-1.6-1-1.7 4.4-1.1 5 .5 5.7.4 4.7-.9-.7-.7-3-1.9-5.1-2.4-2.4-.7-3.9-1.7-3.9-2.7 0-1.3.9-1.4 5.6-.8 4 .5 5.4.3 5-.4-.4-.6-2-1.1-3.5-1.1-2.7 0-8.7-3.7-7.7-4.7.3-.3 3.7.1 7.6.8 5 .9 7.4.9 8.1.2.8-.8-.2-1.3-3.3-1.8-4.7-.8-8.8-2.9-8.8-4.7 0-.8 2.7-.9 9.8-.2 5.3.5 13.4.9 18 .9zm37.5 19.5c3.1.7 5.7 1.7 5.7 2.1 0 1.2-7.6 6.8-11.6 8.5-6.6 2.8-14.9 3.6-23.5 2.3-5-.7-7.9-1.6-7.9-2.4 0-1.8 4.2-7.6 7.1-9.8 4.8-3.5 16.3-3.8 30.2-.7zm-155.9 3.1c1.5 1.2 6 6.5 10 11.8 4.1 5.3 8.4 10.6 9.7 11.8 3.3 3 9.1 5.3 13.6 5.3 2.8 0 3.4.3 2.3 1-2.2 1.4-9.2 1.2-13.9-.5-7.8-2.7-12.1-6.6-17.1-15.4-.7-1.3-1.7-1.2-6.9.2-7.9 2.2-10 2.1-12.7-.3l-2.1-2.1-2.9 2.4c-5.9 4.8-10.9 7.7-13.6 7.7-2.5 0-2.6-.2-1.7-2.9 1.7-4.9 10.2-11.9 20.2-16.7 5.1-2.4 9.9-4.4 10.8-4.4.9 0 2.8.9 4.3 2.1zm94.6 2.4c2.3.8 5.3 1.5 6.6 1.5 3.1 0 3.1 2-.1 5.4-4.6 5-12.9 6.2-16.4 2.4-2.6-2.7-1.7-4.2 2-3.4 3.6.7 3.7-.3.4-3.4-1.9-1.8-2.2-2.6-1.3-3.2 1.9-1.1 4-1 8.8.7zm-47.7 10.1c1.8 3.6 23.4 41.7 27.9 49 3.4 5.6 4.8 9.1 4.8 12.2-.1 7.1-1.8 5.4-10.7-10.4-13.7-24.1-27.3-49.9-27.3-51.7 0-1.3 1.2-2.4 3.1-2.6.3-.1 1.3 1.5 2.2 3.5zm85.1 2.1c5 .9 9.2 1.8 9.4 1.9.2.1-.3 1.5-1.2 3.2-2.5 4.8-7.5 6.6-17 5.9-8.5-.6-15.7-2.6-16.4-4.5-.2-.7 1.2-2.8 3.1-4.7 3-3 4.2-3.5 8.3-3.5 2.6 0 8.8.8 13.8 1.7zm3 15.4c3 1.4 4.9 5.6 4.9 10.8 0 4.8-4.4 14.6-8.5 18.8-3 3.1-9.3 6.1-10.5 5-.3-.3.9-4.3 2.7-8.8 2.3-6 3-9.3 2.6-11.8-.5-3.4-5-9.1-7.1-9.1-.5 0-3.5 1.6-6.5 3.7-4.4 3-5.1 3.7-3.6 4.3 1.7.6 1.6.8-.8 2.8-2.5 1.9-7 3.2-17.3 4.7-4.8.8-4.8.7-2.9-3.8 4.2-10.1 19.4-17.5 36.3-17.6 4.5-.1 9.3.4 10.7 1zm-178.5 2.7c-.5 1.6-3 4.8-5.4 7.2-5 4.9-5.5 6.1-2.5 5.3 1.1-.3 4.6-3.4 7.6-6.9 3.3-3.7 6.5-6.4 7.6-6.4 1.8 0 1.7.4-.9 5.2-4.4 8.2-13.7 16.9-23.3 21.7-7.6 3.8-11 4.9-11 3.6 0-.3 1.2-2.9 2.6-5.8 2.6-5.2 22.9-26.7 25.2-26.7.8 0 .8.8.1 2.8zm35.7 11.7c-1.5 2.9-4.8 7.3-7.5 9.8-4.9 4.6-13.1 9.5-13.1 7.9 0-.5 2.8-4.5 6.1-8.8 3.4-4.4 7.1-9.9 8.1-12.3 1.5-3.3 2.2-4 2.9-3 .8 1.1 1.3.9 2.9-1 1.1-1.3 2.1-3.1 2.2-4 .1-.9.3.1.5 2.3.3 2.7-.3 5.4-2.1 9.1zM396 331.1c0 .6-1.1 2.5-2.5 4.1-4.7 5.5-1.3 5.3 3.6-.3 5.7-6.4 6.3-4.9 1.7 4.2-6.3 12.6-18.8 22.1-27.3 20.5-1.9-.4-3.5-1.1-3.5-1.6 0-.6.4-1 .9-1 1.7 0 14.8-13 20.1-19.9 5.2-6.8 7-8.4 7-6zm31.4 3.1c1.2 3.5 0 8.7-3.2 13.9-2.7 4.2-9.4 9-10.7 7.7-.4-.4 1.8-5.4 4.9-11.3 3.1-5.8 5.6-11.3 5.6-12.1 0-2.4 2.4-1.1 3.4 1.8zm116.4 8.3c.6 7.5-1.6 11-10.8 16.8-5.6 3.5-22.8 11.3-23.4 10.6-.2-.2-1.3-2.3-2.5-4.7-2.6-5-2.3-5.6 4.8-10.5 5.9-4.1 29.3-16.5 30.6-16.2.6.1 1.1 1.9 1.3 4zM479 361.3c0 5.6-4.4 8.6-17.6 11.8-15.9 3.9-19.8 7.2-17.6 14.7 2.6 8.7 9.9 11 22.3 7.2 4-1.2 17.4-7.2 29.8-13.5 30.2-15 35.1-16.8 46.8-16.9 8.6-.1 9.4.1 13.4 2.9 6.5 4.6 10.4 12.8 10.4 21.9 0 6-.4 7.9-2.8 11.9-3.8 6.4-15.7 14.5-15.7 10.6 0-.6.7-3.9 1.6-7.3 2.9-11 1-17.6-6.5-22.7-2.9-2-4.7-2.4-10.5-2.3-8.6.1-14.7 2.1-42.5 13.9-23.9 10-32 12.5-41.4 12.5-6.7 0-7.1-.1-10.8-3.9-4.7-4.7-5-8-1.4-15.1 6.5-12.9 27.5-27.8 39.3-28 2.7 0 3.2.4 3.2 2.3zm-40 1.4c0 1.9-3 10.4-5 14.4-3.7 7.3-11 13.9-15.5 13.9-1.4 0-1.4-.3-.2-2.8.8-1.5 2.2-5.2 3.2-8.2 2.8-8.6 6.3-14.8 9.3-16.4 2.8-1.6 8.2-2.1 8.2-.9zm-23.4 5c-1.7 12.5-11.5 24.6-22.6 27.8l-2.5.7 2.2-2.3c1.1-1.3 3.8-5.6 5.9-9.4 6.3-11.9 9.5-16.5 13.3-19.1 1.9-1.3 3.7-2.4 4-2.4.2 0 .1 2.1-.3 4.7zm-67.2.1c.3.5-.4 2.2-1.4 3.9-4.9 8.1-38.6 25.1-42.3 21.4-2.7-2.7 18.6-20.2 29.5-24.1 5.5-2 13.3-2.6 14.2-1.2zm45.1 2.9c-2.6 6.1-7.3 12.9-12.1 17.3-4.4 4.1-15 9.8-16.1 8.7-.8-.9 12-18.7 16.4-22.8 4.2-4.1 8.9-6.8 11.6-6.9 1.6 0 1.6.2.2 3.7zm99.1.9c.7 2.3 1.7 5.1 2.3 6.1.9 1.9.1 2.5-9.8 7.2-15.7 7.4-26.8 9.2-30.9 4.8l-2.2-2.3 2.3-3.1c2.9-4.2 12.8-9.8 24-13.8 11.8-4.2 12.8-4.1 14.3 1.1zm-123.1 1.1c-5.2 12.5-21.3 24.9-31.2 24.1l-3.8-.3 12.3-11.8c11.5-11 18-15.6 22.5-15.7 1.6 0 1.6.2.2 3.7zm177.4 18.7c1.9 4 1.6 10.5-.7 13.5-2.3 3.2-11.4 10.2-12.6 9.8-1-.3-11.6-19.7-11.6-21.3 0-1.6 4.6-3.6 11.5-4.9 7.9-1.5 11.6-.7 13.4 2.9zm-34.1 17.2l5 9.6-3.2 1.9c-4.2 2.6-7 3.3-11.4 2.6-9-1.5-12.9-12.2-6.7-18.7 3.3-3.5 5.8-4.8 9.2-4.9 1.8-.1 3.1 1.7 7.1 9.5zm-28.1 6.8c2.8 4.3 7.7 8 12.7 9.6 5.4 1.7 14.2.7 28.4-3.4 21.3-6.2 29.9-6.9 37.1-3.2 6.2 3.3 8.7 20.5 4.3 29.7-2.6 5.3-7.1 10.1-7.4 7.8-.1-.8-.2-5.3-.2-10-.1-7.2-.4-9.1-2.1-10.9-6.1-6.7-14.9-6.9-42-1-26.2 5.8-34.2 5-40.3-4-2.9-4.3-3.6-7.2-2.8-11.5.9-4.5 3-6.5 6.9-6.5 2.5 0 3.7.7 5.4 3.4zm49.2 31.2c2.9 3.6 6.4 11.4 5.6 12.2-1.3 1.4-9.1.7-11.8-1.1-3.5-2.3-3.6-6.5-.1-10.6 3.1-3.8 3.7-3.8 6.3-.5zm-15.2 3.7c.7 2.3 2.2 5.6 3.4 7.1 4.1 5.2 7.6 5.9 26.8 5.7 20.2-.2 23.5.5 25 5.2 2.1 6.6 1.7 11.7-1.1 15.2-2 2.6-2.2 2.7-3.5.9-1-1.4-1.2-3.4-.7-7.1.6-5.1.5-5.3-2.2-6.4-3-1.2-18.8-.7-33.9 1-9.4 1.1-12 .2-18-5.9-3.3-3.4-3.9-4.7-4.3-9.4-.4-4.8-.1-5.7 2.1-8 3.6-3.6 5.1-3.2 6.4 1.7zm42.3 39.2c19.1 1.3 24.8 4.7 23.5 14-.3 2.7-.7 5.1-.9 5.2-.1.2-2.4-1.7-5.1-4.2-5.7-5.3-14.5-8.5-23.5-8.5-9.6 0-14-2.7-14-8.5v-3.4l5.3 2.4c3.7 1.7 7.8 2.6 14.7 3zm-1.8 20.4c1.8 1.1 7 2.7 11.5 3.5 10.6 2 14.3 3.6 17.6 7.5 3.7 4.5 3.4 5.7-.7 2.6-5.8-4.4-12.9-6.6-20.7-6.3-7.7.2-10.2-1.2-11.4-6.5-.8-3.2-.6-3.3 3.7-.8zM734.9 400.5c-18.8 3.6-35.8 12.4-50.9 26.5-5.3 4.9-3.8 4.1 4.2-2.3 11.9-9.5 29.5-18 44.2-21.2 6.4-1.4 11.1-1.7 23.5-1.3 14.6.5 15.3.4 11.1-1-6.5-2-23-2.4-32.1-.7zM756.4 450.6l3.8 2.6-3.8 1.8c-5 2.2-7.9 5.1-10.4 10-3.6 7.1-1.9 17.8 3.4 21.6 2 1.4 1.9 1.5-2.1 1.2-6.4-.4-5.6 1.4 1.7 4 6.1 2.2 34.7 5.9 35.9 4.6.9-.9-2.4-3.3-5.8-4.1l-3.5-.9 3.5-2.1c4.3-2.7 7.9-8.9 7.9-13.7 0-2 .2-3.6.5-3.6.2 0 1.9.9 3.7 2 3.8 2.3 4.8 2.5 4.8.7-.1-1.3-2.4-3.1-17.9-14-11.1-7.8-20-12.7-23.3-12.7-1.9 0-1.7.4 1.6 2.6zm11.1 7c.9.9 1.4 2.3 1 3.2-.3.8.3 2.1 1.5 2.9 2.7 1.9 2.5 5.5-.5 8.3-5.7 5.4-15 .6-9.9-5.2 1.6-1.6 1.5-1.8-.2-2.5-3.8-1.3-4.2-3.5-1.4-6.3 2.4-2.4 7.3-2.6 9.5-.4zM781 469c2.6 5 2.5 5.6-.6 11.8-5.9 11.9-20.3 12.4-29.7 1.2-1.5-1.7-2.7-3.6-2.7-4.2 0-.6.9.1 2 1.4 3.1 4 8.5 6.1 13.6 5.3 8.1-1.2 15.5-11.1 13.7-18.3-.9-3.6 1.3-1.9 3.7 2.8zM692.8 466.8c-5.5 6.2-18.8 44.5-16.4 46.9.3.4.6-.2.6-1.2 0-1.6.4-1.5 2.8.8 3.4 3.3 9.8 6 12.3 5.2 2.7-.9 2.4.7-.7 3.6-3 2.8-5.8 7.8-4.9 8.7.4.4 1.1-.2 1.7-1.3.6-1.1 5-5.8 9.8-10.5 7.5-7.3 18-20.4 18-22.4 0-1.3-2.5-.5-5.8 2l-3.4 2.7.7-2.4c1.3-3.9.8-12.5-.9-15.8-2-3.8-6.9-6.4-10.7-5.9-2.3.4-2.8.1-2.5-1.1 1.5-4.8 2.3-10.2 1.6-10.6-.4-.2-1.4.3-2.2 1.3zm12 26.1c.6 8.2-2.9 16-8.3 18.5-6.2 3-10.9 3-14.5 0-3.7-3.1-4.4-6.5-.8-4 5.1 3.6 13.9.8 17.8-5.6 2.7-4.5 2.7-13.1 0-17.6-3-4.8-2.4-5.1 1.7-1 3.2 3.3 3.7 4.4 4.1 9.7zM769.7 549.8c-5.2 7.6-18.7 21.2-21 21.2-.8 0-3.5.9-6.1 2-4.1 1.9-5.8 2-17.7 1.4-12.1-.7-13.6-1-20.2-4.1-3.8-1.9-7.4-3-7.9-2.5-1.2 1.2 8.7 9 14.7 11.7 13.8 6.2 29.7 8.5 36.1 5.2 3.5-1.8 11.8-10.4 16.1-16.7 3-4.4 9.5-16.9 11.3-21.6 1.9-4.8-.9-3.1-5.3 3.4zM762.1 642c-3.4 8.7-4.1 11.3-3.2 12.4.7.8 5.1 3.4 9.8 5.7 7.8 3.9 22.6 15 24.6 18.5.9 1.6 2.7 1.9 2.7.4 0-.5 2.7-7.6 6.1-15.6 3.3-8.1 5.6-15 5.2-15.4-4.9-4.1-10.2-7.5-15.5-10-6-2.8-20.2-7-23.7-7-1.2 0-3 3.3-6 11zm18.9-2.5c8.7 2.9 15.6 6.3 21.3 10.6.7.5-6.8 20.5-8.4 22.3-.5.6-3.1-1.2-6.3-4.2-3.5-3.3-9.1-6.9-15.8-10.3l-10.5-5.2 1.3-4.6c3-9.9 4.6-13.3 6.2-12.6.8.3 6.3 2.1 12.2 4zM887.5 749.1c1.5 4.6 6.2 11.5 9.4 13.6 2.2 1.5 2.9 2.4 2 2.7-.8.2-2.9.9-4.8 1.5-4.9 1.6-8.7 1.4-12.9-.8-3.9-2-9.7-7.7-12.6-12.4-1-1.6-2-2.6-2.3-2.3-1.1 1 7.6 14.2 12 18.3 7.6 7 12.3 7.5 31.4 3.4 4.8-1.1 10.5-2.3 12.7-2.6l3.8-.6-2.8-3.1c-3.5-3.7-8-6-15.9-8.3-7.4-2.1-12.4-4.6-15-7.5-1.1-1.2-2.8-2.6-3.8-3.2-1.6-.8-1.8-.7-1.2 1.3zM917.5 778.7c-9.9 3-36.5 6.5-46.3 6.1-3.9-.2-7.2 0-7.2.3 0 1.3 7.1 4 13 5.1 7.1 1.2 11.1.6 29.5-4.7 17.2-4.8 21.7-6.5 21.2-7.8-.5-1.7-1.8-1.6-10.2 1zM648.4 852.4c-4.8 2.1-7.9 6.8-15.1 22.6-12 26.5-12.7 28.9-12.7 42 0 10.7.3 12.8 5.3 31.5 7.8 29.7 21.5 70.5 23.6 70.5 1.2 0 .1-4.7-10.9-47.5-2.5-9.4-5-20.2-5.6-24-.6-3.9-2.2-11.3-3.5-16.5-3.6-14.2-3.9-18.5-2.1-26.3 3.4-14.6 15-40.7 20.8-46.9 2.6-2.8 3.2-3 7.1-2.4 2.3.4 6.6 1.8 9.6 3.1 6.6 3.1 8 3.1 5.5.4-5.5-6-16.1-9.2-22-6.5zM684.5 895.2c2.4 7.2 8.8 33.5 9.9 41.3 2 13.2 10.7 50.5 11.8 50.5.4 0 .8-4.6.8-10.2 0-10.4-3.7-29.8-9.6-50.6-3-10.8-11.4-32.2-12.5-32.2-.5 0-.6.6-.4 1.2zM698 1046.7c-1.9 11.9-5.3 22.7-11.3 35.3-11.6 24.5-20.2 36-26.8 36-2.7 0-4.8-1.6-13.5-10.2-5.7-5.6-10.6-9.9-10.9-9.6-1.4 1.3 6.9 15 11.9 19.5 15.2 13.9 25.1 7.3 42.3-28.4 7.5-15.6 11.2-28.7 11.6-41.1.3-11.2-1.6-12.1-3.3-1.5z"/></svg>